M48
METRIC,TZ
T1C0.400
T2C0.600
T3C0.800
T4C1.000
T5C1.100
T6C2.200
%
G90
G05
T1
X148150Y-92440
X148633Y-91273
X148633Y-93607
X149800Y-90790
X149800Y-94090
X150967Y-91273
X150967Y-93607
X151450Y-92440
T2
X147800Y-80500
T3
X143000Y-70800
X143000Y-72800
X143000Y-74800
X143000Y-76800
X143000Y-78800
X143000Y-80800
X143000Y-82800
X143000Y-84800
X149000Y-86300
X151000Y-86300
X157200Y-70800
X157200Y-72800
X157200Y-74800
X157200Y-76800
X157200Y-78800
X157200Y-80800
X157200Y-82800
X157200Y-84800
T4
X138620Y-67450
X138620Y-69990
X138620Y-72530
X138620Y-75070
X138620Y-77610
X138620Y-80150
X138620Y-82690
X138620Y-85230
X138620Y-87770
X161480Y-67450
X161480Y-69990
X161480Y-72530
X161480Y-75070
X161480Y-77610
X161480Y-80150
X161480Y-82690
X161480Y-85230
X161480Y-87770
T5
X155200Y-93100
X157740Y-93100
T6
X149800Y-92440
T0
M30
