%FSLAX45Y45*%
G04 Gerber Fmt 4.5, Leading zero omitted, Abs format (unit mm)*
G04 Created by KiCad (PCBNEW (6.0.2)) date 2022-09-29 23:54:31*
%MOMM*%
%LPD*%
G01*
G04 APERTURE LIST*
%TA.AperFunction,Profile*%
%ADD10C,0.050000*%
%TD*%
%ADD11C,0.200000*%
%ADD12C,0.040000*%
%ADD13C,0.060000*%
%ADD14C,0.080000*%
%ADD15C,0.100000*%
%ADD16C,0.110000*%
%ADD17C,0.220000*%
G04 APERTURE END LIST*
D10*
X13632000Y-9435000D02*
X13632000Y-6600000D01*
X14092000Y-6600000D02*
G75*
G03*
X13892000Y-6400000I-200000J0D01*
G01*
X16118000Y-6400000D02*
G75*
G03*
X15918000Y-6600000I0J-200000D01*
G01*
X16118000Y-6400000D02*
X16178000Y-6400000D01*
X14192000Y-6800000D02*
X15818000Y-6800000D01*
X14092000Y-6600000D02*
X14092000Y-6700000D01*
X16178000Y-9635000D02*
G75*
G03*
X16378000Y-9435000I0J200000D01*
G01*
X16378000Y-6600000D02*
G75*
G03*
X16178000Y-6400000I-200000J0D01*
G01*
X14092000Y-6700000D02*
G75*
G03*
X14192000Y-6800000I100000J0D01*
G01*
X15918000Y-6600000D02*
X15918000Y-6700000D01*
X13632000Y-9435000D02*
G75*
G03*
X13832000Y-9635000I200000J0D01*
G01*
X13832000Y-6400000D02*
X13892000Y-6400000D01*
X15818000Y-6800000D02*
G75*
G03*
X15918000Y-6700000I0J100000D01*
G01*
X16178000Y-9635000D02*
X13832000Y-9635000D01*
X13832000Y-6400000D02*
G75*
G03*
X13632000Y-6600000I0J-200000D01*
G01*
X16378000Y-6600000D02*
X16378000Y-9435000D01*
D11*
D12*
X14795000Y-9224000D02*
X14835000Y-9264000D01*
X14835000Y-9224000D02*
X14795000Y-9264000D01*
X14843327Y-9107327D02*
X14883327Y-9147327D01*
X14883327Y-9107327D02*
X14843327Y-9147327D01*
X14843327Y-9340673D02*
X14883327Y-9380673D01*
X14883327Y-9340673D02*
X14843327Y-9380673D01*
X14960000Y-9059000D02*
X15000000Y-9099000D01*
X15000000Y-9059000D02*
X14960000Y-9099000D01*
X14960000Y-9389000D02*
X15000000Y-9429000D01*
X15000000Y-9389000D02*
X14960000Y-9429000D01*
X15076673Y-9107327D02*
X15116673Y-9147327D01*
X15116673Y-9107327D02*
X15076673Y-9147327D01*
X15076673Y-9340673D02*
X15116673Y-9380673D01*
X15116673Y-9340673D02*
X15076673Y-9380673D01*
X15125000Y-9224000D02*
X15165000Y-9264000D01*
X15165000Y-9224000D02*
X15125000Y-9264000D01*
D13*
X14810000Y-8050000D02*
G75*
G03*
X14810000Y-8050000I-30000J0D01*
G01*
D14*
X14300000Y-7040000D02*
X14300000Y-7120000D01*
X14260000Y-7080000D02*
X14340000Y-7080000D01*
X14300000Y-7240000D02*
X14300000Y-7320000D01*
X14260000Y-7280000D02*
X14340000Y-7280000D01*
X14300000Y-7440000D02*
X14300000Y-7520000D01*
X14260000Y-7480000D02*
X14340000Y-7480000D01*
X14300000Y-7640000D02*
X14300000Y-7720000D01*
X14260000Y-7680000D02*
X14340000Y-7680000D01*
X14300000Y-7840000D02*
X14300000Y-7920000D01*
X14260000Y-7880000D02*
X14340000Y-7880000D01*
X14300000Y-8040000D02*
X14300000Y-8120000D01*
X14260000Y-8080000D02*
X14340000Y-8080000D01*
X14300000Y-8240000D02*
X14300000Y-8320000D01*
X14260000Y-8280000D02*
X14340000Y-8280000D01*
X14300000Y-8440000D02*
X14300000Y-8520000D01*
X14260000Y-8480000D02*
X14340000Y-8480000D01*
X14900000Y-8590000D02*
X14900000Y-8670000D01*
X14860000Y-8630000D02*
X14940000Y-8630000D01*
X15100000Y-8590000D02*
X15100000Y-8670000D01*
X15060000Y-8630000D02*
X15140000Y-8630000D01*
X15720000Y-7040000D02*
X15720000Y-7120000D01*
X15680000Y-7080000D02*
X15760000Y-7080000D01*
X15720000Y-7240000D02*
X15720000Y-7320000D01*
X15680000Y-7280000D02*
X15760000Y-7280000D01*
X15720000Y-7440000D02*
X15720000Y-7520000D01*
X15680000Y-7480000D02*
X15760000Y-7480000D01*
X15720000Y-7640000D02*
X15720000Y-7720000D01*
X15680000Y-7680000D02*
X15760000Y-7680000D01*
X15720000Y-7840000D02*
X15720000Y-7920000D01*
X15680000Y-7880000D02*
X15760000Y-7880000D01*
X15720000Y-8040000D02*
X15720000Y-8120000D01*
X15680000Y-8080000D02*
X15760000Y-8080000D01*
X15720000Y-8240000D02*
X15720000Y-8320000D01*
X15680000Y-8280000D02*
X15760000Y-8280000D01*
X15720000Y-8440000D02*
X15720000Y-8520000D01*
X15680000Y-8480000D02*
X15760000Y-8480000D01*
D15*
X13897356Y-6780356D02*
X13897356Y-6709644D01*
X13826644Y-6709644D01*
X13826644Y-6780356D01*
X13897356Y-6780356D01*
X13897356Y-7034356D02*
X13897356Y-6963644D01*
X13826644Y-6963644D01*
X13826644Y-7034356D01*
X13897356Y-7034356D01*
X13897356Y-7288356D02*
X13897356Y-7217644D01*
X13826644Y-7217644D01*
X13826644Y-7288356D01*
X13897356Y-7288356D01*
X13897356Y-7542356D02*
X13897356Y-7471644D01*
X13826644Y-7471644D01*
X13826644Y-7542356D01*
X13897356Y-7542356D01*
X13897356Y-7796356D02*
X13897356Y-7725644D01*
X13826644Y-7725644D01*
X13826644Y-7796356D01*
X13897356Y-7796356D01*
X13897356Y-8050356D02*
X13897356Y-7979644D01*
X13826644Y-7979644D01*
X13826644Y-8050356D01*
X13897356Y-8050356D01*
X13897356Y-8304356D02*
X13897356Y-8233644D01*
X13826644Y-8233644D01*
X13826644Y-8304356D01*
X13897356Y-8304356D01*
X13897356Y-8558356D02*
X13897356Y-8487644D01*
X13826644Y-8487644D01*
X13826644Y-8558356D01*
X13897356Y-8558356D01*
X13897356Y-8812356D02*
X13897356Y-8741644D01*
X13826644Y-8741644D01*
X13826644Y-8812356D01*
X13897356Y-8812356D01*
X16183356Y-6780356D02*
X16183356Y-6709644D01*
X16112644Y-6709644D01*
X16112644Y-6780356D01*
X16183356Y-6780356D01*
X16183356Y-7034356D02*
X16183356Y-6963644D01*
X16112644Y-6963644D01*
X16112644Y-7034356D01*
X16183356Y-7034356D01*
X16183356Y-7288356D02*
X16183356Y-7217644D01*
X16112644Y-7217644D01*
X16112644Y-7288356D01*
X16183356Y-7288356D01*
X16183356Y-7542356D02*
X16183356Y-7471644D01*
X16112644Y-7471644D01*
X16112644Y-7542356D01*
X16183356Y-7542356D01*
X16183356Y-7796356D02*
X16183356Y-7725644D01*
X16112644Y-7725644D01*
X16112644Y-7796356D01*
X16183356Y-7796356D01*
X16183356Y-8050356D02*
X16183356Y-7979644D01*
X16112644Y-7979644D01*
X16112644Y-8050356D01*
X16183356Y-8050356D01*
X16183356Y-8304356D02*
X16183356Y-8233644D01*
X16112644Y-8233644D01*
X16112644Y-8304356D01*
X16183356Y-8304356D01*
X16183356Y-8558356D02*
X16183356Y-8487644D01*
X16112644Y-8487644D01*
X16112644Y-8558356D01*
X16183356Y-8558356D01*
X16183356Y-8812356D02*
X16183356Y-8741644D01*
X16112644Y-8741644D01*
X16112644Y-8812356D01*
X16183356Y-8812356D01*
D16*
X15520000Y-9365000D02*
X15575000Y-9310000D01*
X15520000Y-9255000D01*
X15465000Y-9310000D01*
X15520000Y-9365000D01*
X15774000Y-9365000D02*
X15829000Y-9310000D01*
X15774000Y-9255000D01*
X15719000Y-9310000D01*
X15774000Y-9365000D01*
D17*
X14870000Y-9134000D02*
X15090000Y-9354000D01*
X15090000Y-9134000D02*
X14870000Y-9354000D01*
X15090000Y-9244000D02*
G75*
G03*
X15090000Y-9244000I-110000J0D01*
G01*
D11*
X13887119Y-9947976D02*
X13887119Y-9747976D01*
X13934738Y-9747976D01*
X13963309Y-9757500D01*
X13982357Y-9776548D01*
X13991881Y-9795595D01*
X14001405Y-9833690D01*
X14001405Y-9862262D01*
X13991881Y-9900357D01*
X13982357Y-9919405D01*
X13963309Y-9938452D01*
X13934738Y-9947976D01*
X13887119Y-9947976D01*
X14087119Y-9947976D02*
X14087119Y-9814643D01*
X14087119Y-9852738D02*
X14096643Y-9833690D01*
X14106167Y-9824167D01*
X14125214Y-9814643D01*
X14144262Y-9814643D01*
X14210928Y-9947976D02*
X14210928Y-9814643D01*
X14210928Y-9747976D02*
X14201405Y-9757500D01*
X14210928Y-9767024D01*
X14220452Y-9757500D01*
X14210928Y-9747976D01*
X14210928Y-9767024D01*
X14334738Y-9947976D02*
X14315690Y-9938452D01*
X14306167Y-9919405D01*
X14306167Y-9747976D01*
X14439500Y-9947976D02*
X14420452Y-9938452D01*
X14410928Y-9919405D01*
X14410928Y-9747976D01*
X14668071Y-9947976D02*
X14668071Y-9747976D01*
X14734738Y-9890833D01*
X14801405Y-9747976D01*
X14801405Y-9947976D01*
X14982357Y-9947976D02*
X14982357Y-9843214D01*
X14972833Y-9824167D01*
X14953786Y-9814643D01*
X14915690Y-9814643D01*
X14896643Y-9824167D01*
X14982357Y-9938452D02*
X14963309Y-9947976D01*
X14915690Y-9947976D01*
X14896643Y-9938452D01*
X14887119Y-9919405D01*
X14887119Y-9900357D01*
X14896643Y-9881310D01*
X14915690Y-9871786D01*
X14963309Y-9871786D01*
X14982357Y-9862262D01*
X15077595Y-9814643D02*
X15077595Y-10014643D01*
X15077595Y-9824167D02*
X15096643Y-9814643D01*
X15134738Y-9814643D01*
X15153786Y-9824167D01*
X15163309Y-9833690D01*
X15172833Y-9852738D01*
X15172833Y-9909881D01*
X15163309Y-9928929D01*
X15153786Y-9938452D01*
X15134738Y-9947976D01*
X15096643Y-9947976D01*
X15077595Y-9938452D01*
X15258548Y-9928929D02*
X15268071Y-9938452D01*
X15258548Y-9947976D01*
X15249024Y-9938452D01*
X15258548Y-9928929D01*
X15258548Y-9947976D01*
X15258548Y-9824167D02*
X15268071Y-9833690D01*
X15258548Y-9843214D01*
X15249024Y-9833690D01*
X15258548Y-9824167D01*
X15258548Y-9843214D01*
D12*
X13589500Y-10257500D02*
X13629500Y-10297500D01*
X13629500Y-10257500D02*
X13589500Y-10297500D01*
D11*
X13925214Y-10167976D02*
X13944262Y-10167976D01*
X13963309Y-10177500D01*
X13972833Y-10187024D01*
X13982357Y-10206071D01*
X13991881Y-10244167D01*
X13991881Y-10291786D01*
X13982357Y-10329881D01*
X13972833Y-10348929D01*
X13963309Y-10358452D01*
X13944262Y-10367976D01*
X13925214Y-10367976D01*
X13906167Y-10358452D01*
X13896643Y-10348929D01*
X13887119Y-10329881D01*
X13877595Y-10291786D01*
X13877595Y-10244167D01*
X13887119Y-10206071D01*
X13896643Y-10187024D01*
X13906167Y-10177500D01*
X13925214Y-10167976D01*
X14077595Y-10348929D02*
X14087119Y-10358452D01*
X14077595Y-10367976D01*
X14068071Y-10358452D01*
X14077595Y-10348929D01*
X14077595Y-10367976D01*
X14258548Y-10234643D02*
X14258548Y-10367976D01*
X14210928Y-10158452D02*
X14163309Y-10301310D01*
X14287119Y-10301310D01*
X14401405Y-10167976D02*
X14420452Y-10167976D01*
X14439500Y-10177500D01*
X14449024Y-10187024D01*
X14458548Y-10206071D01*
X14468071Y-10244167D01*
X14468071Y-10291786D01*
X14458548Y-10329881D01*
X14449024Y-10348929D01*
X14439500Y-10358452D01*
X14420452Y-10367976D01*
X14401405Y-10367976D01*
X14382357Y-10358452D01*
X14372833Y-10348929D01*
X14363309Y-10329881D01*
X14353786Y-10291786D01*
X14353786Y-10244167D01*
X14363309Y-10206071D01*
X14372833Y-10187024D01*
X14382357Y-10177500D01*
X14401405Y-10167976D01*
X14591881Y-10167976D02*
X14610928Y-10167976D01*
X14629976Y-10177500D01*
X14639500Y-10187024D01*
X14649024Y-10206071D01*
X14658548Y-10244167D01*
X14658548Y-10291786D01*
X14649024Y-10329881D01*
X14639500Y-10348929D01*
X14629976Y-10358452D01*
X14610928Y-10367976D01*
X14591881Y-10367976D01*
X14572833Y-10358452D01*
X14563309Y-10348929D01*
X14553786Y-10329881D01*
X14544262Y-10291786D01*
X14544262Y-10244167D01*
X14553786Y-10206071D01*
X14563309Y-10187024D01*
X14572833Y-10177500D01*
X14591881Y-10167976D01*
X14744262Y-10367976D02*
X14744262Y-10234643D01*
X14744262Y-10253690D02*
X14753786Y-10244167D01*
X14772833Y-10234643D01*
X14801405Y-10234643D01*
X14820452Y-10244167D01*
X14829976Y-10263214D01*
X14829976Y-10367976D01*
X14829976Y-10263214D02*
X14839500Y-10244167D01*
X14858548Y-10234643D01*
X14887119Y-10234643D01*
X14906167Y-10244167D01*
X14915690Y-10263214D01*
X14915690Y-10367976D01*
X15010928Y-10367976D02*
X15010928Y-10234643D01*
X15010928Y-10253690D02*
X15020452Y-10244167D01*
X15039500Y-10234643D01*
X15068071Y-10234643D01*
X15087119Y-10244167D01*
X15096643Y-10263214D01*
X15096643Y-10367976D01*
X15096643Y-10263214D02*
X15106167Y-10244167D01*
X15125214Y-10234643D01*
X15153786Y-10234643D01*
X15172833Y-10244167D01*
X15182357Y-10263214D01*
X15182357Y-10367976D01*
X15572833Y-10158452D02*
X15401405Y-10415595D01*
X15829976Y-10167976D02*
X15849024Y-10167976D01*
X15868071Y-10177500D01*
X15877595Y-10187024D01*
X15887119Y-10206071D01*
X15896643Y-10244167D01*
X15896643Y-10291786D01*
X15887119Y-10329881D01*
X15877595Y-10348929D01*
X15868071Y-10358452D01*
X15849024Y-10367976D01*
X15829976Y-10367976D01*
X15810928Y-10358452D01*
X15801405Y-10348929D01*
X15791881Y-10329881D01*
X15782357Y-10291786D01*
X15782357Y-10244167D01*
X15791881Y-10206071D01*
X15801405Y-10187024D01*
X15810928Y-10177500D01*
X15829976Y-10167976D01*
X15982357Y-10348929D02*
X15991881Y-10358452D01*
X15982357Y-10367976D01*
X15972833Y-10358452D01*
X15982357Y-10348929D01*
X15982357Y-10367976D01*
X16115690Y-10167976D02*
X16134738Y-10167976D01*
X16153786Y-10177500D01*
X16163309Y-10187024D01*
X16172833Y-10206071D01*
X16182357Y-10244167D01*
X16182357Y-10291786D01*
X16172833Y-10329881D01*
X16163309Y-10348929D01*
X16153786Y-10358452D01*
X16134738Y-10367976D01*
X16115690Y-10367976D01*
X16096643Y-10358452D01*
X16087119Y-10348929D01*
X16077595Y-10329881D01*
X16068071Y-10291786D01*
X16068071Y-10244167D01*
X16077595Y-10206071D01*
X16087119Y-10187024D01*
X16096643Y-10177500D01*
X16115690Y-10167976D01*
X16372833Y-10367976D02*
X16258548Y-10367976D01*
X16315690Y-10367976D02*
X16315690Y-10167976D01*
X16296643Y-10196548D01*
X16277595Y-10215595D01*
X16258548Y-10225119D01*
X16553786Y-10167976D02*
X16458548Y-10167976D01*
X16449024Y-10263214D01*
X16458548Y-10253690D01*
X16477595Y-10244167D01*
X16525214Y-10244167D01*
X16544262Y-10253690D01*
X16553786Y-10263214D01*
X16563309Y-10282262D01*
X16563309Y-10329881D01*
X16553786Y-10348929D01*
X16544262Y-10358452D01*
X16525214Y-10367976D01*
X16477595Y-10367976D01*
X16458548Y-10358452D01*
X16449024Y-10348929D01*
X16629976Y-10167976D02*
X16763309Y-10167976D01*
X16677595Y-10367976D01*
X16829976Y-10167976D02*
X16829976Y-10206071D01*
X16906167Y-10167976D02*
X16906167Y-10206071D01*
X17201405Y-10444167D02*
X17191881Y-10434643D01*
X17172833Y-10406071D01*
X17163310Y-10387024D01*
X17153786Y-10358452D01*
X17144262Y-10310833D01*
X17144262Y-10272738D01*
X17153786Y-10225119D01*
X17163310Y-10196548D01*
X17172833Y-10177500D01*
X17191881Y-10148929D01*
X17201405Y-10139405D01*
X17306167Y-10253690D02*
X17287119Y-10244167D01*
X17277595Y-10234643D01*
X17268071Y-10215595D01*
X17268071Y-10206071D01*
X17277595Y-10187024D01*
X17287119Y-10177500D01*
X17306167Y-10167976D01*
X17344262Y-10167976D01*
X17363310Y-10177500D01*
X17372833Y-10187024D01*
X17382357Y-10206071D01*
X17382357Y-10215595D01*
X17372833Y-10234643D01*
X17363310Y-10244167D01*
X17344262Y-10253690D01*
X17306167Y-10253690D01*
X17287119Y-10263214D01*
X17277595Y-10272738D01*
X17268071Y-10291786D01*
X17268071Y-10329881D01*
X17277595Y-10348929D01*
X17287119Y-10358452D01*
X17306167Y-10367976D01*
X17344262Y-10367976D01*
X17363310Y-10358452D01*
X17372833Y-10348929D01*
X17382357Y-10329881D01*
X17382357Y-10291786D01*
X17372833Y-10272738D01*
X17363310Y-10263214D01*
X17344262Y-10253690D01*
X17620452Y-10367976D02*
X17620452Y-10167976D01*
X17706167Y-10367976D02*
X17706167Y-10263214D01*
X17696643Y-10244167D01*
X17677595Y-10234643D01*
X17649024Y-10234643D01*
X17629976Y-10244167D01*
X17620452Y-10253690D01*
X17829976Y-10367976D02*
X17810929Y-10358452D01*
X17801405Y-10348929D01*
X17791881Y-10329881D01*
X17791881Y-10272738D01*
X17801405Y-10253690D01*
X17810929Y-10244167D01*
X17829976Y-10234643D01*
X17858548Y-10234643D01*
X17877595Y-10244167D01*
X17887119Y-10253690D01*
X17896643Y-10272738D01*
X17896643Y-10329881D01*
X17887119Y-10348929D01*
X17877595Y-10358452D01*
X17858548Y-10367976D01*
X17829976Y-10367976D01*
X18010929Y-10367976D02*
X17991881Y-10358452D01*
X17982357Y-10339405D01*
X17982357Y-10167976D01*
X18163310Y-10358452D02*
X18144262Y-10367976D01*
X18106167Y-10367976D01*
X18087119Y-10358452D01*
X18077595Y-10339405D01*
X18077595Y-10263214D01*
X18087119Y-10244167D01*
X18106167Y-10234643D01*
X18144262Y-10234643D01*
X18163310Y-10244167D01*
X18172833Y-10263214D01*
X18172833Y-10282262D01*
X18077595Y-10301310D01*
X18249024Y-10358452D02*
X18268071Y-10367976D01*
X18306167Y-10367976D01*
X18325214Y-10358452D01*
X18334738Y-10339405D01*
X18334738Y-10329881D01*
X18325214Y-10310833D01*
X18306167Y-10301310D01*
X18277595Y-10301310D01*
X18258548Y-10291786D01*
X18249024Y-10272738D01*
X18249024Y-10263214D01*
X18258548Y-10244167D01*
X18277595Y-10234643D01*
X18306167Y-10234643D01*
X18325214Y-10244167D01*
X18401405Y-10444167D02*
X18410929Y-10434643D01*
X18429976Y-10406071D01*
X18439500Y-10387024D01*
X18449024Y-10358452D01*
X18458548Y-10310833D01*
X18458548Y-10272738D01*
X18449024Y-10225119D01*
X18439500Y-10196548D01*
X18429976Y-10177500D01*
X18410929Y-10148929D01*
X18401405Y-10139405D01*
D13*
X13629500Y-10541500D02*
G75*
G03*
X13629500Y-10541500I-30000J0D01*
G01*
D11*
X13925214Y-10431976D02*
X13944262Y-10431976D01*
X13963309Y-10441500D01*
X13972833Y-10451024D01*
X13982357Y-10470071D01*
X13991881Y-10508167D01*
X13991881Y-10555786D01*
X13982357Y-10593881D01*
X13972833Y-10612929D01*
X13963309Y-10622452D01*
X13944262Y-10631976D01*
X13925214Y-10631976D01*
X13906167Y-10622452D01*
X13896643Y-10612929D01*
X13887119Y-10593881D01*
X13877595Y-10555786D01*
X13877595Y-10508167D01*
X13887119Y-10470071D01*
X13896643Y-10451024D01*
X13906167Y-10441500D01*
X13925214Y-10431976D01*
X14077595Y-10612929D02*
X14087119Y-10622452D01*
X14077595Y-10631976D01*
X14068071Y-10622452D01*
X14077595Y-10612929D01*
X14077595Y-10631976D01*
X14258548Y-10431976D02*
X14220452Y-10431976D01*
X14201405Y-10441500D01*
X14191881Y-10451024D01*
X14172833Y-10479595D01*
X14163309Y-10517690D01*
X14163309Y-10593881D01*
X14172833Y-10612929D01*
X14182357Y-10622452D01*
X14201405Y-10631976D01*
X14239500Y-10631976D01*
X14258548Y-10622452D01*
X14268071Y-10612929D01*
X14277595Y-10593881D01*
X14277595Y-10546262D01*
X14268071Y-10527214D01*
X14258548Y-10517690D01*
X14239500Y-10508167D01*
X14201405Y-10508167D01*
X14182357Y-10517690D01*
X14172833Y-10527214D01*
X14163309Y-10546262D01*
X14401405Y-10431976D02*
X14420452Y-10431976D01*
X14439500Y-10441500D01*
X14449024Y-10451024D01*
X14458548Y-10470071D01*
X14468071Y-10508167D01*
X14468071Y-10555786D01*
X14458548Y-10593881D01*
X14449024Y-10612929D01*
X14439500Y-10622452D01*
X14420452Y-10631976D01*
X14401405Y-10631976D01*
X14382357Y-10622452D01*
X14372833Y-10612929D01*
X14363309Y-10593881D01*
X14353786Y-10555786D01*
X14353786Y-10508167D01*
X14363309Y-10470071D01*
X14372833Y-10451024D01*
X14382357Y-10441500D01*
X14401405Y-10431976D01*
X14591881Y-10431976D02*
X14610928Y-10431976D01*
X14629976Y-10441500D01*
X14639500Y-10451024D01*
X14649024Y-10470071D01*
X14658548Y-10508167D01*
X14658548Y-10555786D01*
X14649024Y-10593881D01*
X14639500Y-10612929D01*
X14629976Y-10622452D01*
X14610928Y-10631976D01*
X14591881Y-10631976D01*
X14572833Y-10622452D01*
X14563309Y-10612929D01*
X14553786Y-10593881D01*
X14544262Y-10555786D01*
X14544262Y-10508167D01*
X14553786Y-10470071D01*
X14563309Y-10451024D01*
X14572833Y-10441500D01*
X14591881Y-10431976D01*
X14744262Y-10631976D02*
X14744262Y-10498643D01*
X14744262Y-10517690D02*
X14753786Y-10508167D01*
X14772833Y-10498643D01*
X14801405Y-10498643D01*
X14820452Y-10508167D01*
X14829976Y-10527214D01*
X14829976Y-10631976D01*
X14829976Y-10527214D02*
X14839500Y-10508167D01*
X14858548Y-10498643D01*
X14887119Y-10498643D01*
X14906167Y-10508167D01*
X14915690Y-10527214D01*
X14915690Y-10631976D01*
X15010928Y-10631976D02*
X15010928Y-10498643D01*
X15010928Y-10517690D02*
X15020452Y-10508167D01*
X15039500Y-10498643D01*
X15068071Y-10498643D01*
X15087119Y-10508167D01*
X15096643Y-10527214D01*
X15096643Y-10631976D01*
X15096643Y-10527214D02*
X15106167Y-10508167D01*
X15125214Y-10498643D01*
X15153786Y-10498643D01*
X15172833Y-10508167D01*
X15182357Y-10527214D01*
X15182357Y-10631976D01*
X15572833Y-10422452D02*
X15401405Y-10679595D01*
X15829976Y-10431976D02*
X15849024Y-10431976D01*
X15868071Y-10441500D01*
X15877595Y-10451024D01*
X15887119Y-10470071D01*
X15896643Y-10508167D01*
X15896643Y-10555786D01*
X15887119Y-10593881D01*
X15877595Y-10612929D01*
X15868071Y-10622452D01*
X15849024Y-10631976D01*
X15829976Y-10631976D01*
X15810928Y-10622452D01*
X15801405Y-10612929D01*
X15791881Y-10593881D01*
X15782357Y-10555786D01*
X15782357Y-10508167D01*
X15791881Y-10470071D01*
X15801405Y-10451024D01*
X15810928Y-10441500D01*
X15829976Y-10431976D01*
X15982357Y-10612929D02*
X15991881Y-10622452D01*
X15982357Y-10631976D01*
X15972833Y-10622452D01*
X15982357Y-10612929D01*
X15982357Y-10631976D01*
X16115690Y-10431976D02*
X16134738Y-10431976D01*
X16153786Y-10441500D01*
X16163309Y-10451024D01*
X16172833Y-10470071D01*
X16182357Y-10508167D01*
X16182357Y-10555786D01*
X16172833Y-10593881D01*
X16163309Y-10612929D01*
X16153786Y-10622452D01*
X16134738Y-10631976D01*
X16115690Y-10631976D01*
X16096643Y-10622452D01*
X16087119Y-10612929D01*
X16077595Y-10593881D01*
X16068071Y-10555786D01*
X16068071Y-10508167D01*
X16077595Y-10470071D01*
X16087119Y-10451024D01*
X16096643Y-10441500D01*
X16115690Y-10431976D01*
X16258548Y-10451024D02*
X16268071Y-10441500D01*
X16287119Y-10431976D01*
X16334738Y-10431976D01*
X16353786Y-10441500D01*
X16363309Y-10451024D01*
X16372833Y-10470071D01*
X16372833Y-10489119D01*
X16363309Y-10517690D01*
X16249024Y-10631976D01*
X16372833Y-10631976D01*
X16439500Y-10431976D02*
X16563309Y-10431976D01*
X16496643Y-10508167D01*
X16525214Y-10508167D01*
X16544262Y-10517690D01*
X16553786Y-10527214D01*
X16563309Y-10546262D01*
X16563309Y-10593881D01*
X16553786Y-10612929D01*
X16544262Y-10622452D01*
X16525214Y-10631976D01*
X16468071Y-10631976D01*
X16449024Y-10622452D01*
X16439500Y-10612929D01*
X16734738Y-10431976D02*
X16696643Y-10431976D01*
X16677595Y-10441500D01*
X16668071Y-10451024D01*
X16649024Y-10479595D01*
X16639500Y-10517690D01*
X16639500Y-10593881D01*
X16649024Y-10612929D01*
X16658548Y-10622452D01*
X16677595Y-10631976D01*
X16715690Y-10631976D01*
X16734738Y-10622452D01*
X16744262Y-10612929D01*
X16753786Y-10593881D01*
X16753786Y-10546262D01*
X16744262Y-10527214D01*
X16734738Y-10517690D01*
X16715690Y-10508167D01*
X16677595Y-10508167D01*
X16658548Y-10517690D01*
X16649024Y-10527214D01*
X16639500Y-10546262D01*
X16829976Y-10431976D02*
X16829976Y-10470071D01*
X16906167Y-10431976D02*
X16906167Y-10470071D01*
X17201405Y-10708167D02*
X17191881Y-10698643D01*
X17172833Y-10670071D01*
X17163310Y-10651024D01*
X17153786Y-10622452D01*
X17144262Y-10574833D01*
X17144262Y-10536738D01*
X17153786Y-10489119D01*
X17163310Y-10460548D01*
X17172833Y-10441500D01*
X17191881Y-10412929D01*
X17201405Y-10403405D01*
X17382357Y-10631976D02*
X17268071Y-10631976D01*
X17325214Y-10631976D02*
X17325214Y-10431976D01*
X17306167Y-10460548D01*
X17287119Y-10479595D01*
X17268071Y-10489119D01*
X17620452Y-10631976D02*
X17620452Y-10431976D01*
X17706167Y-10631976D02*
X17706167Y-10527214D01*
X17696643Y-10508167D01*
X17677595Y-10498643D01*
X17649024Y-10498643D01*
X17629976Y-10508167D01*
X17620452Y-10517690D01*
X17829976Y-10631976D02*
X17810929Y-10622452D01*
X17801405Y-10612929D01*
X17791881Y-10593881D01*
X17791881Y-10536738D01*
X17801405Y-10517690D01*
X17810929Y-10508167D01*
X17829976Y-10498643D01*
X17858548Y-10498643D01*
X17877595Y-10508167D01*
X17887119Y-10517690D01*
X17896643Y-10536738D01*
X17896643Y-10593881D01*
X17887119Y-10612929D01*
X17877595Y-10622452D01*
X17858548Y-10631976D01*
X17829976Y-10631976D01*
X18010929Y-10631976D02*
X17991881Y-10622452D01*
X17982357Y-10603405D01*
X17982357Y-10431976D01*
X18163310Y-10622452D02*
X18144262Y-10631976D01*
X18106167Y-10631976D01*
X18087119Y-10622452D01*
X18077595Y-10603405D01*
X18077595Y-10527214D01*
X18087119Y-10508167D01*
X18106167Y-10498643D01*
X18144262Y-10498643D01*
X18163310Y-10508167D01*
X18172833Y-10527214D01*
X18172833Y-10546262D01*
X18077595Y-10565310D01*
X18239500Y-10708167D02*
X18249024Y-10698643D01*
X18268071Y-10670071D01*
X18277595Y-10651024D01*
X18287119Y-10622452D01*
X18296643Y-10574833D01*
X18296643Y-10536738D01*
X18287119Y-10489119D01*
X18277595Y-10460548D01*
X18268071Y-10441500D01*
X18249024Y-10412929D01*
X18239500Y-10403405D01*
D14*
X13589500Y-10765500D02*
X13589500Y-10845500D01*
X13549500Y-10805500D02*
X13629500Y-10805500D01*
D11*
X13925214Y-10695976D02*
X13944262Y-10695976D01*
X13963309Y-10705500D01*
X13972833Y-10715024D01*
X13982357Y-10734071D01*
X13991881Y-10772167D01*
X13991881Y-10819786D01*
X13982357Y-10857881D01*
X13972833Y-10876929D01*
X13963309Y-10886452D01*
X13944262Y-10895976D01*
X13925214Y-10895976D01*
X13906167Y-10886452D01*
X13896643Y-10876929D01*
X13887119Y-10857881D01*
X13877595Y-10819786D01*
X13877595Y-10772167D01*
X13887119Y-10734071D01*
X13896643Y-10715024D01*
X13906167Y-10705500D01*
X13925214Y-10695976D01*
X14077595Y-10876929D02*
X14087119Y-10886452D01*
X14077595Y-10895976D01*
X14068071Y-10886452D01*
X14077595Y-10876929D01*
X14077595Y-10895976D01*
X14201405Y-10781690D02*
X14182357Y-10772167D01*
X14172833Y-10762643D01*
X14163309Y-10743595D01*
X14163309Y-10734071D01*
X14172833Y-10715024D01*
X14182357Y-10705500D01*
X14201405Y-10695976D01*
X14239500Y-10695976D01*
X14258548Y-10705500D01*
X14268071Y-10715024D01*
X14277595Y-10734071D01*
X14277595Y-10743595D01*
X14268071Y-10762643D01*
X14258548Y-10772167D01*
X14239500Y-10781690D01*
X14201405Y-10781690D01*
X14182357Y-10791214D01*
X14172833Y-10800738D01*
X14163309Y-10819786D01*
X14163309Y-10857881D01*
X14172833Y-10876929D01*
X14182357Y-10886452D01*
X14201405Y-10895976D01*
X14239500Y-10895976D01*
X14258548Y-10886452D01*
X14268071Y-10876929D01*
X14277595Y-10857881D01*
X14277595Y-10819786D01*
X14268071Y-10800738D01*
X14258548Y-10791214D01*
X14239500Y-10781690D01*
X14401405Y-10695976D02*
X14420452Y-10695976D01*
X14439500Y-10705500D01*
X14449024Y-10715024D01*
X14458548Y-10734071D01*
X14468071Y-10772167D01*
X14468071Y-10819786D01*
X14458548Y-10857881D01*
X14449024Y-10876929D01*
X14439500Y-10886452D01*
X14420452Y-10895976D01*
X14401405Y-10895976D01*
X14382357Y-10886452D01*
X14372833Y-10876929D01*
X14363309Y-10857881D01*
X14353786Y-10819786D01*
X14353786Y-10772167D01*
X14363309Y-10734071D01*
X14372833Y-10715024D01*
X14382357Y-10705500D01*
X14401405Y-10695976D01*
X14591881Y-10695976D02*
X14610928Y-10695976D01*
X14629976Y-10705500D01*
X14639500Y-10715024D01*
X14649024Y-10734071D01*
X14658548Y-10772167D01*
X14658548Y-10819786D01*
X14649024Y-10857881D01*
X14639500Y-10876929D01*
X14629976Y-10886452D01*
X14610928Y-10895976D01*
X14591881Y-10895976D01*
X14572833Y-10886452D01*
X14563309Y-10876929D01*
X14553786Y-10857881D01*
X14544262Y-10819786D01*
X14544262Y-10772167D01*
X14553786Y-10734071D01*
X14563309Y-10715024D01*
X14572833Y-10705500D01*
X14591881Y-10695976D01*
X14744262Y-10895976D02*
X14744262Y-10762643D01*
X14744262Y-10781690D02*
X14753786Y-10772167D01*
X14772833Y-10762643D01*
X14801405Y-10762643D01*
X14820452Y-10772167D01*
X14829976Y-10791214D01*
X14829976Y-10895976D01*
X14829976Y-10791214D02*
X14839500Y-10772167D01*
X14858548Y-10762643D01*
X14887119Y-10762643D01*
X14906167Y-10772167D01*
X14915690Y-10791214D01*
X14915690Y-10895976D01*
X15010928Y-10895976D02*
X15010928Y-10762643D01*
X15010928Y-10781690D02*
X15020452Y-10772167D01*
X15039500Y-10762643D01*
X15068071Y-10762643D01*
X15087119Y-10772167D01*
X15096643Y-10791214D01*
X15096643Y-10895976D01*
X15096643Y-10791214D02*
X15106167Y-10772167D01*
X15125214Y-10762643D01*
X15153786Y-10762643D01*
X15172833Y-10772167D01*
X15182357Y-10791214D01*
X15182357Y-10895976D01*
X15572833Y-10686452D02*
X15401405Y-10943595D01*
X15829976Y-10695976D02*
X15849024Y-10695976D01*
X15868071Y-10705500D01*
X15877595Y-10715024D01*
X15887119Y-10734071D01*
X15896643Y-10772167D01*
X15896643Y-10819786D01*
X15887119Y-10857881D01*
X15877595Y-10876929D01*
X15868071Y-10886452D01*
X15849024Y-10895976D01*
X15829976Y-10895976D01*
X15810928Y-10886452D01*
X15801405Y-10876929D01*
X15791881Y-10857881D01*
X15782357Y-10819786D01*
X15782357Y-10772167D01*
X15791881Y-10734071D01*
X15801405Y-10715024D01*
X15810928Y-10705500D01*
X15829976Y-10695976D01*
X15982357Y-10876929D02*
X15991881Y-10886452D01*
X15982357Y-10895976D01*
X15972833Y-10886452D01*
X15982357Y-10876929D01*
X15982357Y-10895976D01*
X16115690Y-10695976D02*
X16134738Y-10695976D01*
X16153786Y-10705500D01*
X16163309Y-10715024D01*
X16172833Y-10734071D01*
X16182357Y-10772167D01*
X16182357Y-10819786D01*
X16172833Y-10857881D01*
X16163309Y-10876929D01*
X16153786Y-10886452D01*
X16134738Y-10895976D01*
X16115690Y-10895976D01*
X16096643Y-10886452D01*
X16087119Y-10876929D01*
X16077595Y-10857881D01*
X16068071Y-10819786D01*
X16068071Y-10772167D01*
X16077595Y-10734071D01*
X16087119Y-10715024D01*
X16096643Y-10705500D01*
X16115690Y-10695976D01*
X16249024Y-10695976D02*
X16372833Y-10695976D01*
X16306167Y-10772167D01*
X16334738Y-10772167D01*
X16353786Y-10781690D01*
X16363309Y-10791214D01*
X16372833Y-10810262D01*
X16372833Y-10857881D01*
X16363309Y-10876929D01*
X16353786Y-10886452D01*
X16334738Y-10895976D01*
X16277595Y-10895976D01*
X16258548Y-10886452D01*
X16249024Y-10876929D01*
X16563309Y-10895976D02*
X16449024Y-10895976D01*
X16506167Y-10895976D02*
X16506167Y-10695976D01*
X16487119Y-10724548D01*
X16468071Y-10743595D01*
X16449024Y-10753119D01*
X16744262Y-10695976D02*
X16649024Y-10695976D01*
X16639500Y-10791214D01*
X16649024Y-10781690D01*
X16668071Y-10772167D01*
X16715690Y-10772167D01*
X16734738Y-10781690D01*
X16744262Y-10791214D01*
X16753786Y-10810262D01*
X16753786Y-10857881D01*
X16744262Y-10876929D01*
X16734738Y-10886452D01*
X16715690Y-10895976D01*
X16668071Y-10895976D01*
X16649024Y-10886452D01*
X16639500Y-10876929D01*
X16829976Y-10695976D02*
X16829976Y-10734071D01*
X16906167Y-10695976D02*
X16906167Y-10734071D01*
X17201405Y-10972167D02*
X17191881Y-10962643D01*
X17172833Y-10934071D01*
X17163310Y-10915024D01*
X17153786Y-10886452D01*
X17144262Y-10838833D01*
X17144262Y-10800738D01*
X17153786Y-10753119D01*
X17163310Y-10724548D01*
X17172833Y-10705500D01*
X17191881Y-10676929D01*
X17201405Y-10667405D01*
X17382357Y-10895976D02*
X17268071Y-10895976D01*
X17325214Y-10895976D02*
X17325214Y-10695976D01*
X17306167Y-10724548D01*
X17287119Y-10743595D01*
X17268071Y-10753119D01*
X17496643Y-10781690D02*
X17477595Y-10772167D01*
X17468071Y-10762643D01*
X17458548Y-10743595D01*
X17458548Y-10734071D01*
X17468071Y-10715024D01*
X17477595Y-10705500D01*
X17496643Y-10695976D01*
X17534738Y-10695976D01*
X17553786Y-10705500D01*
X17563310Y-10715024D01*
X17572833Y-10734071D01*
X17572833Y-10743595D01*
X17563310Y-10762643D01*
X17553786Y-10772167D01*
X17534738Y-10781690D01*
X17496643Y-10781690D01*
X17477595Y-10791214D01*
X17468071Y-10800738D01*
X17458548Y-10819786D01*
X17458548Y-10857881D01*
X17468071Y-10876929D01*
X17477595Y-10886452D01*
X17496643Y-10895976D01*
X17534738Y-10895976D01*
X17553786Y-10886452D01*
X17563310Y-10876929D01*
X17572833Y-10857881D01*
X17572833Y-10819786D01*
X17563310Y-10800738D01*
X17553786Y-10791214D01*
X17534738Y-10781690D01*
X17810929Y-10895976D02*
X17810929Y-10695976D01*
X17896643Y-10895976D02*
X17896643Y-10791214D01*
X17887119Y-10772167D01*
X17868071Y-10762643D01*
X17839500Y-10762643D01*
X17820452Y-10772167D01*
X17810929Y-10781690D01*
X18020452Y-10895976D02*
X18001405Y-10886452D01*
X17991881Y-10876929D01*
X17982357Y-10857881D01*
X17982357Y-10800738D01*
X17991881Y-10781690D01*
X18001405Y-10772167D01*
X18020452Y-10762643D01*
X18049024Y-10762643D01*
X18068071Y-10772167D01*
X18077595Y-10781690D01*
X18087119Y-10800738D01*
X18087119Y-10857881D01*
X18077595Y-10876929D01*
X18068071Y-10886452D01*
X18049024Y-10895976D01*
X18020452Y-10895976D01*
X18201405Y-10895976D02*
X18182357Y-10886452D01*
X18172833Y-10867405D01*
X18172833Y-10695976D01*
X18353786Y-10886452D02*
X18334738Y-10895976D01*
X18296643Y-10895976D01*
X18277595Y-10886452D01*
X18268071Y-10867405D01*
X18268071Y-10791214D01*
X18277595Y-10772167D01*
X18296643Y-10762643D01*
X18334738Y-10762643D01*
X18353786Y-10772167D01*
X18363310Y-10791214D01*
X18363310Y-10810262D01*
X18268071Y-10829310D01*
X18439500Y-10886452D02*
X18458548Y-10895976D01*
X18496643Y-10895976D01*
X18515690Y-10886452D01*
X18525214Y-10867405D01*
X18525214Y-10857881D01*
X18515690Y-10838833D01*
X18496643Y-10829310D01*
X18468071Y-10829310D01*
X18449024Y-10819786D01*
X18439500Y-10800738D01*
X18439500Y-10791214D01*
X18449024Y-10772167D01*
X18468071Y-10762643D01*
X18496643Y-10762643D01*
X18515690Y-10772167D01*
X18591881Y-10972167D02*
X18601405Y-10962643D01*
X18620452Y-10934071D01*
X18629976Y-10915024D01*
X18639500Y-10886452D01*
X18649024Y-10838833D01*
X18649024Y-10800738D01*
X18639500Y-10753119D01*
X18629976Y-10724548D01*
X18620452Y-10705500D01*
X18601405Y-10676929D01*
X18591881Y-10667405D01*
D15*
X13614856Y-11104856D02*
X13614856Y-11034144D01*
X13544144Y-11034144D01*
X13544144Y-11104856D01*
X13614856Y-11104856D01*
D11*
X13991881Y-11159976D02*
X13877595Y-11159976D01*
X13934738Y-11159976D02*
X13934738Y-10959976D01*
X13915690Y-10988548D01*
X13896643Y-11007595D01*
X13877595Y-11017119D01*
X14077595Y-11140929D02*
X14087119Y-11150452D01*
X14077595Y-11159976D01*
X14068071Y-11150452D01*
X14077595Y-11140929D01*
X14077595Y-11159976D01*
X14210928Y-10959976D02*
X14229976Y-10959976D01*
X14249024Y-10969500D01*
X14258548Y-10979024D01*
X14268071Y-10998071D01*
X14277595Y-11036167D01*
X14277595Y-11083786D01*
X14268071Y-11121881D01*
X14258548Y-11140929D01*
X14249024Y-11150452D01*
X14229976Y-11159976D01*
X14210928Y-11159976D01*
X14191881Y-11150452D01*
X14182357Y-11140929D01*
X14172833Y-11121881D01*
X14163309Y-11083786D01*
X14163309Y-11036167D01*
X14172833Y-10998071D01*
X14182357Y-10979024D01*
X14191881Y-10969500D01*
X14210928Y-10959976D01*
X14401405Y-10959976D02*
X14420452Y-10959976D01*
X14439500Y-10969500D01*
X14449024Y-10979024D01*
X14458548Y-10998071D01*
X14468071Y-11036167D01*
X14468071Y-11083786D01*
X14458548Y-11121881D01*
X14449024Y-11140929D01*
X14439500Y-11150452D01*
X14420452Y-11159976D01*
X14401405Y-11159976D01*
X14382357Y-11150452D01*
X14372833Y-11140929D01*
X14363309Y-11121881D01*
X14353786Y-11083786D01*
X14353786Y-11036167D01*
X14363309Y-10998071D01*
X14372833Y-10979024D01*
X14382357Y-10969500D01*
X14401405Y-10959976D01*
X14591881Y-10959976D02*
X14610928Y-10959976D01*
X14629976Y-10969500D01*
X14639500Y-10979024D01*
X14649024Y-10998071D01*
X14658548Y-11036167D01*
X14658548Y-11083786D01*
X14649024Y-11121881D01*
X14639500Y-11140929D01*
X14629976Y-11150452D01*
X14610928Y-11159976D01*
X14591881Y-11159976D01*
X14572833Y-11150452D01*
X14563309Y-11140929D01*
X14553786Y-11121881D01*
X14544262Y-11083786D01*
X14544262Y-11036167D01*
X14553786Y-10998071D01*
X14563309Y-10979024D01*
X14572833Y-10969500D01*
X14591881Y-10959976D01*
X14744262Y-11159976D02*
X14744262Y-11026643D01*
X14744262Y-11045690D02*
X14753786Y-11036167D01*
X14772833Y-11026643D01*
X14801405Y-11026643D01*
X14820452Y-11036167D01*
X14829976Y-11055214D01*
X14829976Y-11159976D01*
X14829976Y-11055214D02*
X14839500Y-11036167D01*
X14858548Y-11026643D01*
X14887119Y-11026643D01*
X14906167Y-11036167D01*
X14915690Y-11055214D01*
X14915690Y-11159976D01*
X15010928Y-11159976D02*
X15010928Y-11026643D01*
X15010928Y-11045690D02*
X15020452Y-11036167D01*
X15039500Y-11026643D01*
X15068071Y-11026643D01*
X15087119Y-11036167D01*
X15096643Y-11055214D01*
X15096643Y-11159976D01*
X15096643Y-11055214D02*
X15106167Y-11036167D01*
X15125214Y-11026643D01*
X15153786Y-11026643D01*
X15172833Y-11036167D01*
X15182357Y-11055214D01*
X15182357Y-11159976D01*
X15572833Y-10950452D02*
X15401405Y-11207595D01*
X15829976Y-10959976D02*
X15849024Y-10959976D01*
X15868071Y-10969500D01*
X15877595Y-10979024D01*
X15887119Y-10998071D01*
X15896643Y-11036167D01*
X15896643Y-11083786D01*
X15887119Y-11121881D01*
X15877595Y-11140929D01*
X15868071Y-11150452D01*
X15849024Y-11159976D01*
X15829976Y-11159976D01*
X15810928Y-11150452D01*
X15801405Y-11140929D01*
X15791881Y-11121881D01*
X15782357Y-11083786D01*
X15782357Y-11036167D01*
X15791881Y-10998071D01*
X15801405Y-10979024D01*
X15810928Y-10969500D01*
X15829976Y-10959976D01*
X15982357Y-11140929D02*
X15991881Y-11150452D01*
X15982357Y-11159976D01*
X15972833Y-11150452D01*
X15982357Y-11140929D01*
X15982357Y-11159976D01*
X16115690Y-10959976D02*
X16134738Y-10959976D01*
X16153786Y-10969500D01*
X16163309Y-10979024D01*
X16172833Y-10998071D01*
X16182357Y-11036167D01*
X16182357Y-11083786D01*
X16172833Y-11121881D01*
X16163309Y-11140929D01*
X16153786Y-11150452D01*
X16134738Y-11159976D01*
X16115690Y-11159976D01*
X16096643Y-11150452D01*
X16087119Y-11140929D01*
X16077595Y-11121881D01*
X16068071Y-11083786D01*
X16068071Y-11036167D01*
X16077595Y-10998071D01*
X16087119Y-10979024D01*
X16096643Y-10969500D01*
X16115690Y-10959976D01*
X16249024Y-10959976D02*
X16372833Y-10959976D01*
X16306167Y-11036167D01*
X16334738Y-11036167D01*
X16353786Y-11045690D01*
X16363309Y-11055214D01*
X16372833Y-11074262D01*
X16372833Y-11121881D01*
X16363309Y-11140929D01*
X16353786Y-11150452D01*
X16334738Y-11159976D01*
X16277595Y-11159976D01*
X16258548Y-11150452D01*
X16249024Y-11140929D01*
X16468071Y-11159976D02*
X16506167Y-11159976D01*
X16525214Y-11150452D01*
X16534738Y-11140929D01*
X16553786Y-11112357D01*
X16563309Y-11074262D01*
X16563309Y-10998071D01*
X16553786Y-10979024D01*
X16544262Y-10969500D01*
X16525214Y-10959976D01*
X16487119Y-10959976D01*
X16468071Y-10969500D01*
X16458548Y-10979024D01*
X16449024Y-10998071D01*
X16449024Y-11045690D01*
X16458548Y-11064738D01*
X16468071Y-11074262D01*
X16487119Y-11083786D01*
X16525214Y-11083786D01*
X16544262Y-11074262D01*
X16553786Y-11064738D01*
X16563309Y-11045690D01*
X16734738Y-11026643D02*
X16734738Y-11159976D01*
X16687119Y-10950452D02*
X16639500Y-11093310D01*
X16763309Y-11093310D01*
X16829976Y-10959976D02*
X16829976Y-10998071D01*
X16906167Y-10959976D02*
X16906167Y-10998071D01*
X17201405Y-11236167D02*
X17191881Y-11226643D01*
X17172833Y-11198071D01*
X17163310Y-11179024D01*
X17153786Y-11150452D01*
X17144262Y-11102833D01*
X17144262Y-11064738D01*
X17153786Y-11017119D01*
X17163310Y-10988548D01*
X17172833Y-10969500D01*
X17191881Y-10940929D01*
X17201405Y-10931405D01*
X17382357Y-11159976D02*
X17268071Y-11159976D01*
X17325214Y-11159976D02*
X17325214Y-10959976D01*
X17306167Y-10988548D01*
X17287119Y-11007595D01*
X17268071Y-11017119D01*
X17496643Y-11045690D02*
X17477595Y-11036167D01*
X17468071Y-11026643D01*
X17458548Y-11007595D01*
X17458548Y-10998071D01*
X17468071Y-10979024D01*
X17477595Y-10969500D01*
X17496643Y-10959976D01*
X17534738Y-10959976D01*
X17553786Y-10969500D01*
X17563310Y-10979024D01*
X17572833Y-10998071D01*
X17572833Y-11007595D01*
X17563310Y-11026643D01*
X17553786Y-11036167D01*
X17534738Y-11045690D01*
X17496643Y-11045690D01*
X17477595Y-11055214D01*
X17468071Y-11064738D01*
X17458548Y-11083786D01*
X17458548Y-11121881D01*
X17468071Y-11140929D01*
X17477595Y-11150452D01*
X17496643Y-11159976D01*
X17534738Y-11159976D01*
X17553786Y-11150452D01*
X17563310Y-11140929D01*
X17572833Y-11121881D01*
X17572833Y-11083786D01*
X17563310Y-11064738D01*
X17553786Y-11055214D01*
X17534738Y-11045690D01*
X17810929Y-11159976D02*
X17810929Y-10959976D01*
X17896643Y-11159976D02*
X17896643Y-11055214D01*
X17887119Y-11036167D01*
X17868071Y-11026643D01*
X17839500Y-11026643D01*
X17820452Y-11036167D01*
X17810929Y-11045690D01*
X18020452Y-11159976D02*
X18001405Y-11150452D01*
X17991881Y-11140929D01*
X17982357Y-11121881D01*
X17982357Y-11064738D01*
X17991881Y-11045690D01*
X18001405Y-11036167D01*
X18020452Y-11026643D01*
X18049024Y-11026643D01*
X18068071Y-11036167D01*
X18077595Y-11045690D01*
X18087119Y-11064738D01*
X18087119Y-11121881D01*
X18077595Y-11140929D01*
X18068071Y-11150452D01*
X18049024Y-11159976D01*
X18020452Y-11159976D01*
X18201405Y-11159976D02*
X18182357Y-11150452D01*
X18172833Y-11131405D01*
X18172833Y-10959976D01*
X18353786Y-11150452D02*
X18334738Y-11159976D01*
X18296643Y-11159976D01*
X18277595Y-11150452D01*
X18268071Y-11131405D01*
X18268071Y-11055214D01*
X18277595Y-11036167D01*
X18296643Y-11026643D01*
X18334738Y-11026643D01*
X18353786Y-11036167D01*
X18363310Y-11055214D01*
X18363310Y-11074262D01*
X18268071Y-11093310D01*
X18439500Y-11150452D02*
X18458548Y-11159976D01*
X18496643Y-11159976D01*
X18515690Y-11150452D01*
X18525214Y-11131405D01*
X18525214Y-11121881D01*
X18515690Y-11102833D01*
X18496643Y-11093310D01*
X18468071Y-11093310D01*
X18449024Y-11083786D01*
X18439500Y-11064738D01*
X18439500Y-11055214D01*
X18449024Y-11036167D01*
X18468071Y-11026643D01*
X18496643Y-11026643D01*
X18515690Y-11036167D01*
X18591881Y-11236167D02*
X18601405Y-11226643D01*
X18620452Y-11198071D01*
X18629976Y-11179024D01*
X18639500Y-11150452D01*
X18649024Y-11102833D01*
X18649024Y-11064738D01*
X18639500Y-11017119D01*
X18629976Y-10988548D01*
X18620452Y-10969500D01*
X18601405Y-10940929D01*
X18591881Y-10931405D01*
D16*
X13574500Y-11388500D02*
X13629500Y-11333500D01*
X13574500Y-11278500D01*
X13519500Y-11333500D01*
X13574500Y-11388500D01*
D11*
X13991881Y-11423976D02*
X13877595Y-11423976D01*
X13934738Y-11423976D02*
X13934738Y-11223976D01*
X13915690Y-11252548D01*
X13896643Y-11271595D01*
X13877595Y-11281119D01*
X14077595Y-11404928D02*
X14087119Y-11414452D01*
X14077595Y-11423976D01*
X14068071Y-11414452D01*
X14077595Y-11404928D01*
X14077595Y-11423976D01*
X14277595Y-11423976D02*
X14163309Y-11423976D01*
X14220452Y-11423976D02*
X14220452Y-11223976D01*
X14201405Y-11252548D01*
X14182357Y-11271595D01*
X14163309Y-11281119D01*
X14401405Y-11223976D02*
X14420452Y-11223976D01*
X14439500Y-11233500D01*
X14449024Y-11243024D01*
X14458548Y-11262071D01*
X14468071Y-11300167D01*
X14468071Y-11347786D01*
X14458548Y-11385881D01*
X14449024Y-11404928D01*
X14439500Y-11414452D01*
X14420452Y-11423976D01*
X14401405Y-11423976D01*
X14382357Y-11414452D01*
X14372833Y-11404928D01*
X14363309Y-11385881D01*
X14353786Y-11347786D01*
X14353786Y-11300167D01*
X14363309Y-11262071D01*
X14372833Y-11243024D01*
X14382357Y-11233500D01*
X14401405Y-11223976D01*
X14591881Y-11223976D02*
X14610928Y-11223976D01*
X14629976Y-11233500D01*
X14639500Y-11243024D01*
X14649024Y-11262071D01*
X14658548Y-11300167D01*
X14658548Y-11347786D01*
X14649024Y-11385881D01*
X14639500Y-11404928D01*
X14629976Y-11414452D01*
X14610928Y-11423976D01*
X14591881Y-11423976D01*
X14572833Y-11414452D01*
X14563309Y-11404928D01*
X14553786Y-11385881D01*
X14544262Y-11347786D01*
X14544262Y-11300167D01*
X14553786Y-11262071D01*
X14563309Y-11243024D01*
X14572833Y-11233500D01*
X14591881Y-11223976D01*
X14744262Y-11423976D02*
X14744262Y-11290643D01*
X14744262Y-11309690D02*
X14753786Y-11300167D01*
X14772833Y-11290643D01*
X14801405Y-11290643D01*
X14820452Y-11300167D01*
X14829976Y-11319214D01*
X14829976Y-11423976D01*
X14829976Y-11319214D02*
X14839500Y-11300167D01*
X14858548Y-11290643D01*
X14887119Y-11290643D01*
X14906167Y-11300167D01*
X14915690Y-11319214D01*
X14915690Y-11423976D01*
X15010928Y-11423976D02*
X15010928Y-11290643D01*
X15010928Y-11309690D02*
X15020452Y-11300167D01*
X15039500Y-11290643D01*
X15068071Y-11290643D01*
X15087119Y-11300167D01*
X15096643Y-11319214D01*
X15096643Y-11423976D01*
X15096643Y-11319214D02*
X15106167Y-11300167D01*
X15125214Y-11290643D01*
X15153786Y-11290643D01*
X15172833Y-11300167D01*
X15182357Y-11319214D01*
X15182357Y-11423976D01*
X15572833Y-11214452D02*
X15401405Y-11471595D01*
X15829976Y-11223976D02*
X15849024Y-11223976D01*
X15868071Y-11233500D01*
X15877595Y-11243024D01*
X15887119Y-11262071D01*
X15896643Y-11300167D01*
X15896643Y-11347786D01*
X15887119Y-11385881D01*
X15877595Y-11404928D01*
X15868071Y-11414452D01*
X15849024Y-11423976D01*
X15829976Y-11423976D01*
X15810928Y-11414452D01*
X15801405Y-11404928D01*
X15791881Y-11385881D01*
X15782357Y-11347786D01*
X15782357Y-11300167D01*
X15791881Y-11262071D01*
X15801405Y-11243024D01*
X15810928Y-11233500D01*
X15829976Y-11223976D01*
X15982357Y-11404928D02*
X15991881Y-11414452D01*
X15982357Y-11423976D01*
X15972833Y-11414452D01*
X15982357Y-11404928D01*
X15982357Y-11423976D01*
X16115690Y-11223976D02*
X16134738Y-11223976D01*
X16153786Y-11233500D01*
X16163309Y-11243024D01*
X16172833Y-11262071D01*
X16182357Y-11300167D01*
X16182357Y-11347786D01*
X16172833Y-11385881D01*
X16163309Y-11404928D01*
X16153786Y-11414452D01*
X16134738Y-11423976D01*
X16115690Y-11423976D01*
X16096643Y-11414452D01*
X16087119Y-11404928D01*
X16077595Y-11385881D01*
X16068071Y-11347786D01*
X16068071Y-11300167D01*
X16077595Y-11262071D01*
X16087119Y-11243024D01*
X16096643Y-11233500D01*
X16115690Y-11223976D01*
X16353786Y-11290643D02*
X16353786Y-11423976D01*
X16306167Y-11214452D02*
X16258548Y-11357309D01*
X16382357Y-11357309D01*
X16439500Y-11223976D02*
X16563309Y-11223976D01*
X16496643Y-11300167D01*
X16525214Y-11300167D01*
X16544262Y-11309690D01*
X16553786Y-11319214D01*
X16563309Y-11338262D01*
X16563309Y-11385881D01*
X16553786Y-11404928D01*
X16544262Y-11414452D01*
X16525214Y-11423976D01*
X16468071Y-11423976D01*
X16449024Y-11414452D01*
X16439500Y-11404928D01*
X16629976Y-11223976D02*
X16753786Y-11223976D01*
X16687119Y-11300167D01*
X16715690Y-11300167D01*
X16734738Y-11309690D01*
X16744262Y-11319214D01*
X16753786Y-11338262D01*
X16753786Y-11385881D01*
X16744262Y-11404928D01*
X16734738Y-11414452D01*
X16715690Y-11423976D01*
X16658548Y-11423976D01*
X16639500Y-11414452D01*
X16629976Y-11404928D01*
X16829976Y-11223976D02*
X16829976Y-11262071D01*
X16906167Y-11223976D02*
X16906167Y-11262071D01*
X17201405Y-11500167D02*
X17191881Y-11490643D01*
X17172833Y-11462071D01*
X17163310Y-11443024D01*
X17153786Y-11414452D01*
X17144262Y-11366833D01*
X17144262Y-11328738D01*
X17153786Y-11281119D01*
X17163310Y-11252548D01*
X17172833Y-11233500D01*
X17191881Y-11204928D01*
X17201405Y-11195405D01*
X17268071Y-11243024D02*
X17277595Y-11233500D01*
X17296643Y-11223976D01*
X17344262Y-11223976D01*
X17363310Y-11233500D01*
X17372833Y-11243024D01*
X17382357Y-11262071D01*
X17382357Y-11281119D01*
X17372833Y-11309690D01*
X17258548Y-11423976D01*
X17382357Y-11423976D01*
X17620452Y-11423976D02*
X17620452Y-11223976D01*
X17706167Y-11423976D02*
X17706167Y-11319214D01*
X17696643Y-11300167D01*
X17677595Y-11290643D01*
X17649024Y-11290643D01*
X17629976Y-11300167D01*
X17620452Y-11309690D01*
X17829976Y-11423976D02*
X17810929Y-11414452D01*
X17801405Y-11404928D01*
X17791881Y-11385881D01*
X17791881Y-11328738D01*
X17801405Y-11309690D01*
X17810929Y-11300167D01*
X17829976Y-11290643D01*
X17858548Y-11290643D01*
X17877595Y-11300167D01*
X17887119Y-11309690D01*
X17896643Y-11328738D01*
X17896643Y-11385881D01*
X17887119Y-11404928D01*
X17877595Y-11414452D01*
X17858548Y-11423976D01*
X17829976Y-11423976D01*
X18010929Y-11423976D02*
X17991881Y-11414452D01*
X17982357Y-11395405D01*
X17982357Y-11223976D01*
X18163310Y-11414452D02*
X18144262Y-11423976D01*
X18106167Y-11423976D01*
X18087119Y-11414452D01*
X18077595Y-11395405D01*
X18077595Y-11319214D01*
X18087119Y-11300167D01*
X18106167Y-11290643D01*
X18144262Y-11290643D01*
X18163310Y-11300167D01*
X18172833Y-11319214D01*
X18172833Y-11338262D01*
X18077595Y-11357309D01*
X18249024Y-11414452D02*
X18268071Y-11423976D01*
X18306167Y-11423976D01*
X18325214Y-11414452D01*
X18334738Y-11395405D01*
X18334738Y-11385881D01*
X18325214Y-11366833D01*
X18306167Y-11357309D01*
X18277595Y-11357309D01*
X18258548Y-11347786D01*
X18249024Y-11328738D01*
X18249024Y-11319214D01*
X18258548Y-11300167D01*
X18277595Y-11290643D01*
X18306167Y-11290643D01*
X18325214Y-11300167D01*
X18401405Y-11500167D02*
X18410929Y-11490643D01*
X18429976Y-11462071D01*
X18439500Y-11443024D01*
X18449024Y-11414452D01*
X18458548Y-11366833D01*
X18458548Y-11328738D01*
X18449024Y-11281119D01*
X18439500Y-11252548D01*
X18429976Y-11233500D01*
X18410929Y-11204928D01*
X18401405Y-11195405D01*
X13429500Y-11497500D02*
X13629500Y-11697500D01*
X13629500Y-11497500D02*
X13429500Y-11697500D01*
X13629500Y-11597500D02*
G75*
G03*
X13629500Y-11597500I-100000J0D01*
G01*
X13877595Y-11507024D02*
X13887119Y-11497500D01*
X13906167Y-11487976D01*
X13953786Y-11487976D01*
X13972833Y-11497500D01*
X13982357Y-11507024D01*
X13991881Y-11526071D01*
X13991881Y-11545119D01*
X13982357Y-11573690D01*
X13868071Y-11687976D01*
X13991881Y-11687976D01*
X14077595Y-11668928D02*
X14087119Y-11678452D01*
X14077595Y-11687976D01*
X14068071Y-11678452D01*
X14077595Y-11668928D01*
X14077595Y-11687976D01*
X14163309Y-11507024D02*
X14172833Y-11497500D01*
X14191881Y-11487976D01*
X14239500Y-11487976D01*
X14258548Y-11497500D01*
X14268071Y-11507024D01*
X14277595Y-11526071D01*
X14277595Y-11545119D01*
X14268071Y-11573690D01*
X14153786Y-11687976D01*
X14277595Y-11687976D01*
X14401405Y-11487976D02*
X14420452Y-11487976D01*
X14439500Y-11497500D01*
X14449024Y-11507024D01*
X14458548Y-11526071D01*
X14468071Y-11564167D01*
X14468071Y-11611786D01*
X14458548Y-11649881D01*
X14449024Y-11668928D01*
X14439500Y-11678452D01*
X14420452Y-11687976D01*
X14401405Y-11687976D01*
X14382357Y-11678452D01*
X14372833Y-11668928D01*
X14363309Y-11649881D01*
X14353786Y-11611786D01*
X14353786Y-11564167D01*
X14363309Y-11526071D01*
X14372833Y-11507024D01*
X14382357Y-11497500D01*
X14401405Y-11487976D01*
X14591881Y-11487976D02*
X14610928Y-11487976D01*
X14629976Y-11497500D01*
X14639500Y-11507024D01*
X14649024Y-11526071D01*
X14658548Y-11564167D01*
X14658548Y-11611786D01*
X14649024Y-11649881D01*
X14639500Y-11668928D01*
X14629976Y-11678452D01*
X14610928Y-11687976D01*
X14591881Y-11687976D01*
X14572833Y-11678452D01*
X14563309Y-11668928D01*
X14553786Y-11649881D01*
X14544262Y-11611786D01*
X14544262Y-11564167D01*
X14553786Y-11526071D01*
X14563309Y-11507024D01*
X14572833Y-11497500D01*
X14591881Y-11487976D01*
X14744262Y-11687976D02*
X14744262Y-11554643D01*
X14744262Y-11573690D02*
X14753786Y-11564167D01*
X14772833Y-11554643D01*
X14801405Y-11554643D01*
X14820452Y-11564167D01*
X14829976Y-11583214D01*
X14829976Y-11687976D01*
X14829976Y-11583214D02*
X14839500Y-11564167D01*
X14858548Y-11554643D01*
X14887119Y-11554643D01*
X14906167Y-11564167D01*
X14915690Y-11583214D01*
X14915690Y-11687976D01*
X15010928Y-11687976D02*
X15010928Y-11554643D01*
X15010928Y-11573690D02*
X15020452Y-11564167D01*
X15039500Y-11554643D01*
X15068071Y-11554643D01*
X15087119Y-11564167D01*
X15096643Y-11583214D01*
X15096643Y-11687976D01*
X15096643Y-11583214D02*
X15106167Y-11564167D01*
X15125214Y-11554643D01*
X15153786Y-11554643D01*
X15172833Y-11564167D01*
X15182357Y-11583214D01*
X15182357Y-11687976D01*
X15572833Y-11478452D02*
X15401405Y-11735595D01*
X15829976Y-11487976D02*
X15849024Y-11487976D01*
X15868071Y-11497500D01*
X15877595Y-11507024D01*
X15887119Y-11526071D01*
X15896643Y-11564167D01*
X15896643Y-11611786D01*
X15887119Y-11649881D01*
X15877595Y-11668928D01*
X15868071Y-11678452D01*
X15849024Y-11687976D01*
X15829976Y-11687976D01*
X15810928Y-11678452D01*
X15801405Y-11668928D01*
X15791881Y-11649881D01*
X15782357Y-11611786D01*
X15782357Y-11564167D01*
X15791881Y-11526071D01*
X15801405Y-11507024D01*
X15810928Y-11497500D01*
X15829976Y-11487976D01*
X15982357Y-11668928D02*
X15991881Y-11678452D01*
X15982357Y-11687976D01*
X15972833Y-11678452D01*
X15982357Y-11668928D01*
X15982357Y-11687976D01*
X16115690Y-11487976D02*
X16134738Y-11487976D01*
X16153786Y-11497500D01*
X16163309Y-11507024D01*
X16172833Y-11526071D01*
X16182357Y-11564167D01*
X16182357Y-11611786D01*
X16172833Y-11649881D01*
X16163309Y-11668928D01*
X16153786Y-11678452D01*
X16134738Y-11687976D01*
X16115690Y-11687976D01*
X16096643Y-11678452D01*
X16087119Y-11668928D01*
X16077595Y-11649881D01*
X16068071Y-11611786D01*
X16068071Y-11564167D01*
X16077595Y-11526071D01*
X16087119Y-11507024D01*
X16096643Y-11497500D01*
X16115690Y-11487976D01*
X16296643Y-11573690D02*
X16277595Y-11564167D01*
X16268071Y-11554643D01*
X16258548Y-11535595D01*
X16258548Y-11526071D01*
X16268071Y-11507024D01*
X16277595Y-11497500D01*
X16296643Y-11487976D01*
X16334738Y-11487976D01*
X16353786Y-11497500D01*
X16363309Y-11507024D01*
X16372833Y-11526071D01*
X16372833Y-11535595D01*
X16363309Y-11554643D01*
X16353786Y-11564167D01*
X16334738Y-11573690D01*
X16296643Y-11573690D01*
X16277595Y-11583214D01*
X16268071Y-11592738D01*
X16258548Y-11611786D01*
X16258548Y-11649881D01*
X16268071Y-11668928D01*
X16277595Y-11678452D01*
X16296643Y-11687976D01*
X16334738Y-11687976D01*
X16353786Y-11678452D01*
X16363309Y-11668928D01*
X16372833Y-11649881D01*
X16372833Y-11611786D01*
X16363309Y-11592738D01*
X16353786Y-11583214D01*
X16334738Y-11573690D01*
X16544262Y-11487976D02*
X16506167Y-11487976D01*
X16487119Y-11497500D01*
X16477595Y-11507024D01*
X16458548Y-11535595D01*
X16449024Y-11573690D01*
X16449024Y-11649881D01*
X16458548Y-11668928D01*
X16468071Y-11678452D01*
X16487119Y-11687976D01*
X16525214Y-11687976D01*
X16544262Y-11678452D01*
X16553786Y-11668928D01*
X16563309Y-11649881D01*
X16563309Y-11602262D01*
X16553786Y-11583214D01*
X16544262Y-11573690D01*
X16525214Y-11564167D01*
X16487119Y-11564167D01*
X16468071Y-11573690D01*
X16458548Y-11583214D01*
X16449024Y-11602262D01*
X16734738Y-11487976D02*
X16696643Y-11487976D01*
X16677595Y-11497500D01*
X16668071Y-11507024D01*
X16649024Y-11535595D01*
X16639500Y-11573690D01*
X16639500Y-11649881D01*
X16649024Y-11668928D01*
X16658548Y-11678452D01*
X16677595Y-11687976D01*
X16715690Y-11687976D01*
X16734738Y-11678452D01*
X16744262Y-11668928D01*
X16753786Y-11649881D01*
X16753786Y-11602262D01*
X16744262Y-11583214D01*
X16734738Y-11573690D01*
X16715690Y-11564167D01*
X16677595Y-11564167D01*
X16658548Y-11573690D01*
X16649024Y-11583214D01*
X16639500Y-11602262D01*
X16829976Y-11487976D02*
X16829976Y-11526071D01*
X16906167Y-11487976D02*
X16906167Y-11526071D01*
X17201405Y-11764167D02*
X17191881Y-11754643D01*
X17172833Y-11726071D01*
X17163310Y-11707024D01*
X17153786Y-11678452D01*
X17144262Y-11630833D01*
X17144262Y-11592738D01*
X17153786Y-11545119D01*
X17163310Y-11516548D01*
X17172833Y-11497500D01*
X17191881Y-11468928D01*
X17201405Y-11459405D01*
X17382357Y-11687976D02*
X17268071Y-11687976D01*
X17325214Y-11687976D02*
X17325214Y-11487976D01*
X17306167Y-11516548D01*
X17287119Y-11535595D01*
X17268071Y-11545119D01*
X17620452Y-11687976D02*
X17620452Y-11487976D01*
X17706167Y-11687976D02*
X17706167Y-11583214D01*
X17696643Y-11564167D01*
X17677595Y-11554643D01*
X17649024Y-11554643D01*
X17629976Y-11564167D01*
X17620452Y-11573690D01*
X17829976Y-11687976D02*
X17810929Y-11678452D01*
X17801405Y-11668928D01*
X17791881Y-11649881D01*
X17791881Y-11592738D01*
X17801405Y-11573690D01*
X17810929Y-11564167D01*
X17829976Y-11554643D01*
X17858548Y-11554643D01*
X17877595Y-11564167D01*
X17887119Y-11573690D01*
X17896643Y-11592738D01*
X17896643Y-11649881D01*
X17887119Y-11668928D01*
X17877595Y-11678452D01*
X17858548Y-11687976D01*
X17829976Y-11687976D01*
X18010929Y-11687976D02*
X17991881Y-11678452D01*
X17982357Y-11659405D01*
X17982357Y-11487976D01*
X18163310Y-11678452D02*
X18144262Y-11687976D01*
X18106167Y-11687976D01*
X18087119Y-11678452D01*
X18077595Y-11659405D01*
X18077595Y-11583214D01*
X18087119Y-11564167D01*
X18106167Y-11554643D01*
X18144262Y-11554643D01*
X18163310Y-11564167D01*
X18172833Y-11583214D01*
X18172833Y-11602262D01*
X18077595Y-11621309D01*
X18239500Y-11764167D02*
X18249024Y-11754643D01*
X18268071Y-11726071D01*
X18277595Y-11707024D01*
X18287119Y-11678452D01*
X18296643Y-11630833D01*
X18296643Y-11592738D01*
X18287119Y-11545119D01*
X18277595Y-11516548D01*
X18268071Y-11497500D01*
X18249024Y-11468928D01*
X18239500Y-11459405D01*
M02*
