%FSLAX45Y45*%
G04 Gerber Fmt 4.5, Leading zero omitted, Abs format (unit mm)*
G04 Created by KiCad (PCBNEW (6.0.2)) date 2022-09-29 23:54:31*
%MOMM*%
%LPD*%
G01*
G04 APERTURE LIST*
%TA.AperFunction,Profile*%
%ADD10C,0.050000*%
%TD*%
%ADD11C,0.200000*%
G04 APERTURE END LIST*
D10*
X13632000Y-9435000D02*
X13632000Y-6600000D01*
X14092000Y-6600000D02*
G75*
G03*
X13892000Y-6400000I-200000J0D01*
G01*
X16118000Y-6400000D02*
G75*
G03*
X15918000Y-6600000I0J-200000D01*
G01*
X16118000Y-6400000D02*
X16178000Y-6400000D01*
X14192000Y-6800000D02*
X15818000Y-6800000D01*
X14092000Y-6600000D02*
X14092000Y-6700000D01*
X16178000Y-9635000D02*
G75*
G03*
X16378000Y-9435000I0J200000D01*
G01*
X16378000Y-6600000D02*
G75*
G03*
X16178000Y-6400000I-200000J0D01*
G01*
X14092000Y-6700000D02*
G75*
G03*
X14192000Y-6800000I100000J0D01*
G01*
X15918000Y-6600000D02*
X15918000Y-6700000D01*
X13632000Y-9435000D02*
G75*
G03*
X13832000Y-9635000I200000J0D01*
G01*
X13832000Y-6400000D02*
X13892000Y-6400000D01*
X15818000Y-6800000D02*
G75*
G03*
X15918000Y-6700000I0J100000D01*
G01*
X16178000Y-9635000D02*
X13832000Y-9635000D01*
X13832000Y-6400000D02*
G75*
G03*
X13632000Y-6600000I0J-200000D01*
G01*
X16378000Y-6600000D02*
X16378000Y-9435000D01*
D11*
X13887119Y-9947976D02*
X13887119Y-9747976D01*
X13934738Y-9747976D01*
X13963309Y-9757500D01*
X13982357Y-9776548D01*
X13991881Y-9795595D01*
X14001405Y-9833690D01*
X14001405Y-9862262D01*
X13991881Y-9900357D01*
X13982357Y-9919405D01*
X13963309Y-9938452D01*
X13934738Y-9947976D01*
X13887119Y-9947976D01*
X14087119Y-9947976D02*
X14087119Y-9814643D01*
X14087119Y-9852738D02*
X14096643Y-9833690D01*
X14106167Y-9824167D01*
X14125214Y-9814643D01*
X14144262Y-9814643D01*
X14210928Y-9947976D02*
X14210928Y-9814643D01*
X14210928Y-9747976D02*
X14201405Y-9757500D01*
X14210928Y-9767024D01*
X14220452Y-9757500D01*
X14210928Y-9747976D01*
X14210928Y-9767024D01*
X14334738Y-9947976D02*
X14315690Y-9938452D01*
X14306167Y-9919405D01*
X14306167Y-9747976D01*
X14439500Y-9947976D02*
X14420452Y-9938452D01*
X14410928Y-9919405D01*
X14410928Y-9747976D01*
X14668071Y-9947976D02*
X14668071Y-9747976D01*
X14734738Y-9890833D01*
X14801405Y-9747976D01*
X14801405Y-9947976D01*
X14982357Y-9947976D02*
X14982357Y-9843214D01*
X14972833Y-9824167D01*
X14953786Y-9814643D01*
X14915690Y-9814643D01*
X14896643Y-9824167D01*
X14982357Y-9938452D02*
X14963309Y-9947976D01*
X14915690Y-9947976D01*
X14896643Y-9938452D01*
X14887119Y-9919405D01*
X14887119Y-9900357D01*
X14896643Y-9881310D01*
X14915690Y-9871786D01*
X14963309Y-9871786D01*
X14982357Y-9862262D01*
X15077595Y-9814643D02*
X15077595Y-10014643D01*
X15077595Y-9824167D02*
X15096643Y-9814643D01*
X15134738Y-9814643D01*
X15153786Y-9824167D01*
X15163309Y-9833690D01*
X15172833Y-9852738D01*
X15172833Y-9909881D01*
X15163309Y-9928929D01*
X15153786Y-9938452D01*
X15134738Y-9947976D01*
X15096643Y-9947976D01*
X15077595Y-9938452D01*
X15258548Y-9928929D02*
X15268071Y-9938452D01*
X15258548Y-9947976D01*
X15249024Y-9938452D01*
X15258548Y-9928929D01*
X15258548Y-9947976D01*
X15258548Y-9824167D02*
X15268071Y-9833690D01*
X15258548Y-9843214D01*
X15249024Y-9833690D01*
X15258548Y-9824167D01*
X15258548Y-9843214D01*
M02*
