G04 #@! TF.GenerationSoftware,KiCad,Pcbnew,(6.0.2)*
G04 #@! TF.CreationDate,2022-09-29T23:54:19+02:00*
G04 #@! TF.ProjectId,ESPBreakoutBoard-Min-Cutout,45535042-7265-4616-9b6f-7574426f6172,rev?*
G04 #@! TF.SameCoordinates,Original*
G04 #@! TF.FileFunction,Legend,Bot*
G04 #@! TF.FilePolarity,Positive*
%FSLAX46Y46*%
G04 Gerber Fmt 4.6, Leading zero omitted, Abs format (unit mm)*
G04 Created by KiCad (PCBNEW (6.0.2)) date 2022-09-29 23:54:19*
%MOMM*%
%LPD*%
G01*
G04 APERTURE LIST*
%ADD10C,0.150000*%
%ADD11C,0.100000*%
%ADD12C,0.130000*%
%ADD13R,2.200000X2.200000*%
%ADD14C,2.200000*%
%ADD15R,1.350000X1.350000*%
%ADD16O,1.350000X1.350000*%
%ADD17C,1.350000*%
%ADD18R,1.700000X1.700000*%
%ADD19O,1.700000X1.700000*%
%ADD20C,0.700000*%
%ADD21C,4.400000*%
G04 APERTURE END LIST*
D10*
X147519047Y-94752380D02*
X147519047Y-95466666D01*
X147566666Y-95609523D01*
X147661904Y-95704761D01*
X147804761Y-95752380D01*
X147900000Y-95752380D01*
X146566666Y-95752380D02*
X147042857Y-95752380D01*
X147042857Y-94752380D01*
X145661904Y-95657142D02*
X145709523Y-95704761D01*
X145852380Y-95752380D01*
X145947619Y-95752380D01*
X146090476Y-95704761D01*
X146185714Y-95609523D01*
X146233333Y-95514285D01*
X146280952Y-95323809D01*
X146280952Y-95180952D01*
X146233333Y-94990476D01*
X146185714Y-94895238D01*
X146090476Y-94800000D01*
X145947619Y-94752380D01*
X145852380Y-94752380D01*
X145709523Y-94800000D01*
X145661904Y-94847619D01*
X144947619Y-94752380D02*
X144947619Y-95466666D01*
X144995238Y-95609523D01*
X145090476Y-95704761D01*
X145233333Y-95752380D01*
X145328571Y-95752380D01*
X143995238Y-95752380D02*
X144471428Y-95752380D01*
X144471428Y-94752380D01*
X143090476Y-95657142D02*
X143138095Y-95704761D01*
X143280952Y-95752380D01*
X143376190Y-95752380D01*
X143519047Y-95704761D01*
X143614285Y-95609523D01*
X143661904Y-95514285D01*
X143709523Y-95323809D01*
X143709523Y-95180952D01*
X143661904Y-94990476D01*
X143614285Y-94895238D01*
X143519047Y-94800000D01*
X143376190Y-94752380D01*
X143280952Y-94752380D01*
X143138095Y-94800000D01*
X143090476Y-94847619D01*
X142376190Y-94752380D02*
X142376190Y-95466666D01*
X142423809Y-95609523D01*
X142519047Y-95704761D01*
X142661904Y-95752380D01*
X142757142Y-95752380D01*
X141423809Y-95752380D02*
X141900000Y-95752380D01*
X141900000Y-94752380D01*
X140519047Y-95657142D02*
X140566666Y-95704761D01*
X140709523Y-95752380D01*
X140804761Y-95752380D01*
X140947619Y-95704761D01*
X141042857Y-95609523D01*
X141090476Y-95514285D01*
X141138095Y-95323809D01*
X141138095Y-95180952D01*
X141090476Y-94990476D01*
X141042857Y-94895238D01*
X140947619Y-94800000D01*
X140804761Y-94752380D01*
X140709523Y-94752380D01*
X140566666Y-94800000D01*
X140519047Y-94847619D01*
X139804761Y-94752380D02*
X139804761Y-95466666D01*
X139852380Y-95609523D01*
X139947619Y-95704761D01*
X140090476Y-95752380D01*
X140185714Y-95752380D01*
X138852380Y-95752380D02*
X139328571Y-95752380D01*
X139328571Y-94752380D01*
X137947619Y-95657142D02*
X137995238Y-95704761D01*
X138138095Y-95752380D01*
X138233333Y-95752380D01*
X138376190Y-95704761D01*
X138471428Y-95609523D01*
X138519047Y-95514285D01*
X138566666Y-95323809D01*
X138566666Y-95180952D01*
X138519047Y-94990476D01*
X138471428Y-94895238D01*
X138376190Y-94800000D01*
X138233333Y-94752380D01*
X138138095Y-94752380D01*
X137995238Y-94800000D01*
X137947619Y-94847619D01*
D11*
X137200000Y-70742857D02*
X137200000Y-70457142D01*
X137028571Y-70800000D02*
X137628571Y-70600000D01*
X137028571Y-70400000D01*
X137028571Y-70200000D02*
X137628571Y-70200000D01*
X137628571Y-70057142D01*
X137600000Y-69971428D01*
X137542857Y-69914285D01*
X137485714Y-69885714D01*
X137371428Y-69857142D01*
X137285714Y-69857142D01*
X137171428Y-69885714D01*
X137114285Y-69914285D01*
X137057142Y-69971428D01*
X137028571Y-70057142D01*
X137028571Y-70200000D01*
X137085714Y-69257142D02*
X137057142Y-69285714D01*
X137028571Y-69371428D01*
X137028571Y-69428571D01*
X137057142Y-69514285D01*
X137114285Y-69571428D01*
X137171428Y-69600000D01*
X137285714Y-69628571D01*
X137371428Y-69628571D01*
X137485714Y-69600000D01*
X137542857Y-69571428D01*
X137600000Y-69514285D01*
X137628571Y-69428571D01*
X137628571Y-69371428D01*
X137600000Y-69285714D01*
X137571428Y-69257142D01*
X137342857Y-72992857D02*
X137342857Y-72792857D01*
X137028571Y-72707142D02*
X137028571Y-72992857D01*
X137628571Y-72992857D01*
X137628571Y-72707142D01*
X137028571Y-72450000D02*
X137628571Y-72450000D01*
X137028571Y-72107142D01*
X137628571Y-72107142D01*
X137028571Y-83585714D02*
X137628571Y-83585714D01*
X137628571Y-83185714D02*
X137628571Y-83071428D01*
X137600000Y-83014285D01*
X137542857Y-82957142D01*
X137428571Y-82928571D01*
X137228571Y-82928571D01*
X137114285Y-82957142D01*
X137057142Y-83014285D01*
X137028571Y-83071428D01*
X137028571Y-83185714D01*
X137057142Y-83242857D01*
X137114285Y-83300000D01*
X137228571Y-83328571D01*
X137428571Y-83328571D01*
X137542857Y-83300000D01*
X137600000Y-83242857D01*
X137628571Y-83185714D01*
X137028571Y-82357142D02*
X137028571Y-82700000D01*
X137028571Y-82528571D02*
X137628571Y-82528571D01*
X137542857Y-82585714D01*
X137485714Y-82642857D01*
X137457142Y-82700000D01*
X137628571Y-82157142D02*
X137628571Y-81785714D01*
X137400000Y-81985714D01*
X137400000Y-81900000D01*
X137371428Y-81842857D01*
X137342857Y-81814285D01*
X137285714Y-81785714D01*
X137142857Y-81785714D01*
X137085714Y-81814285D01*
X137057142Y-81842857D01*
X137028571Y-81900000D01*
X137028571Y-82071428D01*
X137057142Y-82128571D01*
X137085714Y-82157142D01*
X137628571Y-86050000D02*
X137028571Y-85850000D01*
X137628571Y-85650000D01*
X137085714Y-85107142D02*
X137057142Y-85135714D01*
X137028571Y-85221428D01*
X137028571Y-85278571D01*
X137057142Y-85364285D01*
X137114285Y-85421428D01*
X137171428Y-85450000D01*
X137285714Y-85478571D01*
X137371428Y-85478571D01*
X137485714Y-85450000D01*
X137542857Y-85421428D01*
X137600000Y-85364285D01*
X137628571Y-85278571D01*
X137628571Y-85221428D01*
X137600000Y-85135714D01*
X137571428Y-85107142D01*
X137085714Y-84507142D02*
X137057142Y-84535714D01*
X137028571Y-84621428D01*
X137028571Y-84678571D01*
X137057142Y-84764285D01*
X137114285Y-84821428D01*
X137171428Y-84850000D01*
X137285714Y-84878571D01*
X137371428Y-84878571D01*
X137485714Y-84850000D01*
X137542857Y-84821428D01*
X137600000Y-84764285D01*
X137628571Y-84678571D01*
X137628571Y-84621428D01*
X137600000Y-84535714D01*
X137571428Y-84507142D01*
X137028571Y-75935714D02*
X137628571Y-75935714D01*
X137628571Y-75535714D02*
X137628571Y-75421428D01*
X137600000Y-75364285D01*
X137542857Y-75307142D01*
X137428571Y-75278571D01*
X137228571Y-75278571D01*
X137114285Y-75307142D01*
X137057142Y-75364285D01*
X137028571Y-75421428D01*
X137028571Y-75535714D01*
X137057142Y-75592857D01*
X137114285Y-75650000D01*
X137228571Y-75678571D01*
X137428571Y-75678571D01*
X137542857Y-75650000D01*
X137600000Y-75592857D01*
X137628571Y-75535714D01*
X137028571Y-74707142D02*
X137028571Y-75050000D01*
X137028571Y-74878571D02*
X137628571Y-74878571D01*
X137542857Y-74935714D01*
X137485714Y-74992857D01*
X137457142Y-75050000D01*
X137628571Y-74192857D02*
X137628571Y-74307142D01*
X137600000Y-74364285D01*
X137571428Y-74392857D01*
X137485714Y-74450000D01*
X137371428Y-74478571D01*
X137142857Y-74478571D01*
X137085714Y-74450000D01*
X137057142Y-74421428D01*
X137028571Y-74364285D01*
X137028571Y-74250000D01*
X137057142Y-74192857D01*
X137085714Y-74164285D01*
X137142857Y-74135714D01*
X137285714Y-74135714D01*
X137342857Y-74164285D01*
X137371428Y-74192857D01*
X137400000Y-74250000D01*
X137400000Y-74364285D01*
X137371428Y-74421428D01*
X137342857Y-74450000D01*
X137285714Y-74478571D01*
X137028571Y-78485714D02*
X137628571Y-78485714D01*
X137628571Y-78085714D02*
X137628571Y-77971428D01*
X137600000Y-77914285D01*
X137542857Y-77857142D01*
X137428571Y-77828571D01*
X137228571Y-77828571D01*
X137114285Y-77857142D01*
X137057142Y-77914285D01*
X137028571Y-77971428D01*
X137028571Y-78085714D01*
X137057142Y-78142857D01*
X137114285Y-78200000D01*
X137228571Y-78228571D01*
X137428571Y-78228571D01*
X137542857Y-78200000D01*
X137600000Y-78142857D01*
X137628571Y-78085714D01*
X137028571Y-77257142D02*
X137028571Y-77600000D01*
X137028571Y-77428571D02*
X137628571Y-77428571D01*
X137542857Y-77485714D01*
X137485714Y-77542857D01*
X137457142Y-77600000D01*
X137428571Y-76742857D02*
X137028571Y-76742857D01*
X137657142Y-76885714D02*
X137228571Y-77028571D01*
X137228571Y-76657142D01*
X163065028Y-86914285D02*
X162465028Y-86914285D01*
X162465028Y-87314285D02*
X162465028Y-87428571D01*
X162493600Y-87485714D01*
X162550742Y-87542857D01*
X162665028Y-87571428D01*
X162865028Y-87571428D01*
X162979314Y-87542857D01*
X163036457Y-87485714D01*
X163065028Y-87428571D01*
X163065028Y-87314285D01*
X163036457Y-87257142D01*
X162979314Y-87200000D01*
X162865028Y-87171428D01*
X162665028Y-87171428D01*
X162550742Y-87200000D01*
X162493600Y-87257142D01*
X162465028Y-87314285D01*
X163065028Y-88142857D02*
X163065028Y-87800000D01*
X163065028Y-87971428D02*
X162465028Y-87971428D01*
X162550742Y-87914285D01*
X162607885Y-87857142D01*
X162636457Y-87800000D01*
X162465028Y-88514285D02*
X162465028Y-88571428D01*
X162493600Y-88628571D01*
X162522171Y-88657142D01*
X162579314Y-88685714D01*
X162693600Y-88714285D01*
X162836457Y-88714285D01*
X162950742Y-88685714D01*
X163007885Y-88657142D01*
X163036457Y-88628571D01*
X163065028Y-88571428D01*
X163065028Y-88514285D01*
X163036457Y-88457142D01*
X163007885Y-88428571D01*
X162950742Y-88400000D01*
X162836457Y-88371428D01*
X162693600Y-88371428D01*
X162579314Y-88400000D01*
X162522171Y-88428571D01*
X162493600Y-88457142D01*
X162465028Y-88514285D01*
X163071428Y-79550000D02*
X162471428Y-79550000D01*
X162471428Y-79950000D02*
X162471428Y-80064285D01*
X162500000Y-80121428D01*
X162557142Y-80178571D01*
X162671428Y-80207142D01*
X162871428Y-80207142D01*
X162985714Y-80178571D01*
X163042857Y-80121428D01*
X163071428Y-80064285D01*
X163071428Y-79950000D01*
X163042857Y-79892857D01*
X162985714Y-79835714D01*
X162871428Y-79807142D01*
X162671428Y-79807142D01*
X162557142Y-79835714D01*
X162500000Y-79892857D01*
X162471428Y-79950000D01*
X162528571Y-80435714D02*
X162500000Y-80464285D01*
X162471428Y-80521428D01*
X162471428Y-80664285D01*
X162500000Y-80721428D01*
X162528571Y-80750000D01*
X162585714Y-80778571D01*
X162642857Y-80778571D01*
X162728571Y-80750000D01*
X163071428Y-80407142D01*
X163071428Y-80778571D01*
D10*
X152321428Y-82207142D02*
X152321428Y-81307142D01*
X152321428Y-81650000D02*
X152235714Y-81607142D01*
X152064285Y-81607142D01*
X151978571Y-81650000D01*
X151935714Y-81692857D01*
X151892857Y-81778571D01*
X151892857Y-82035714D01*
X151935714Y-82121428D01*
X151978571Y-82164285D01*
X152064285Y-82207142D01*
X152235714Y-82207142D01*
X152321428Y-82164285D01*
X151592857Y-81607142D02*
X151378571Y-82207142D01*
X151164285Y-81607142D02*
X151378571Y-82207142D01*
X151464285Y-82421428D01*
X151507142Y-82464285D01*
X151592857Y-82507142D01*
X150178571Y-81950000D02*
X149750000Y-81950000D01*
X150264285Y-82207142D02*
X149964285Y-81307142D01*
X149664285Y-82207142D01*
X149364285Y-81607142D02*
X149364285Y-82207142D01*
X149364285Y-81692857D02*
X149321428Y-81650000D01*
X149235714Y-81607142D01*
X149107142Y-81607142D01*
X149021428Y-81650000D01*
X148978571Y-81735714D01*
X148978571Y-82207142D01*
X148164285Y-82207142D02*
X148164285Y-81307142D01*
X148164285Y-82164285D02*
X148250000Y-82207142D01*
X148421428Y-82207142D01*
X148507142Y-82164285D01*
X148550000Y-82121428D01*
X148592857Y-82035714D01*
X148592857Y-81778571D01*
X148550000Y-81692857D01*
X148507142Y-81650000D01*
X148421428Y-81607142D01*
X148250000Y-81607142D01*
X148164285Y-81650000D01*
X147821428Y-81607142D02*
X147607142Y-82207142D01*
X147392857Y-81607142D02*
X147607142Y-82207142D01*
X147692857Y-82421428D01*
X147735714Y-82464285D01*
X147821428Y-82507142D01*
D11*
X137028571Y-67778571D02*
X137314285Y-67978571D01*
X137028571Y-68121428D02*
X137628571Y-68121428D01*
X137628571Y-67892857D01*
X137600000Y-67835714D01*
X137571428Y-67807142D01*
X137514285Y-67778571D01*
X137428571Y-67778571D01*
X137371428Y-67807142D01*
X137342857Y-67835714D01*
X137314285Y-67892857D01*
X137314285Y-68121428D01*
X137057142Y-67550000D02*
X137028571Y-67464285D01*
X137028571Y-67321428D01*
X137057142Y-67264285D01*
X137085714Y-67235714D01*
X137142857Y-67207142D01*
X137200000Y-67207142D01*
X137257142Y-67235714D01*
X137285714Y-67264285D01*
X137314285Y-67321428D01*
X137342857Y-67435714D01*
X137371428Y-67492857D01*
X137400000Y-67521428D01*
X137457142Y-67550000D01*
X137514285Y-67550000D01*
X137571428Y-67521428D01*
X137600000Y-67492857D01*
X137628571Y-67435714D01*
X137628571Y-67292857D01*
X137600000Y-67207142D01*
X137628571Y-67035714D02*
X137628571Y-66692857D01*
X137028571Y-66864285D02*
X137628571Y-66864285D01*
X163071428Y-69400000D02*
X162471428Y-69400000D01*
X162471428Y-69800000D02*
X162471428Y-69914285D01*
X162500000Y-69971428D01*
X162557142Y-70028571D01*
X162671428Y-70057142D01*
X162871428Y-70057142D01*
X162985714Y-70028571D01*
X163042857Y-69971428D01*
X163071428Y-69914285D01*
X163071428Y-69800000D01*
X163042857Y-69742857D01*
X162985714Y-69685714D01*
X162871428Y-69657142D01*
X162671428Y-69657142D01*
X162557142Y-69685714D01*
X162500000Y-69742857D01*
X162471428Y-69800000D01*
X162471428Y-70257142D02*
X162471428Y-70628571D01*
X162700000Y-70428571D01*
X162700000Y-70514285D01*
X162728571Y-70571428D01*
X162757142Y-70600000D01*
X162814285Y-70628571D01*
X162957142Y-70628571D01*
X163014285Y-70600000D01*
X163042857Y-70571428D01*
X163071428Y-70514285D01*
X163071428Y-70342857D01*
X163042857Y-70285714D01*
X163014285Y-70257142D01*
X163071428Y-81814285D02*
X162471428Y-81814285D01*
X162471428Y-82214285D02*
X162471428Y-82328571D01*
X162500000Y-82385714D01*
X162557142Y-82442857D01*
X162671428Y-82471428D01*
X162871428Y-82471428D01*
X162985714Y-82442857D01*
X163042857Y-82385714D01*
X163071428Y-82328571D01*
X163071428Y-82214285D01*
X163042857Y-82157142D01*
X162985714Y-82100000D01*
X162871428Y-82071428D01*
X162671428Y-82071428D01*
X162557142Y-82100000D01*
X162500000Y-82157142D01*
X162471428Y-82214285D01*
X163071428Y-83042857D02*
X163071428Y-82700000D01*
X163071428Y-82871428D02*
X162471428Y-82871428D01*
X162557142Y-82814285D01*
X162614285Y-82757142D01*
X162642857Y-82700000D01*
X162471428Y-83585714D02*
X162471428Y-83300000D01*
X162757142Y-83271428D01*
X162728571Y-83300000D01*
X162700000Y-83357142D01*
X162700000Y-83500000D01*
X162728571Y-83557142D01*
X162757142Y-83585714D01*
X162814285Y-83614285D01*
X162957142Y-83614285D01*
X163014285Y-83585714D01*
X163042857Y-83557142D01*
X163071428Y-83500000D01*
X163071428Y-83357142D01*
X163042857Y-83300000D01*
X163014285Y-83271428D01*
D10*
X152685714Y-76486714D02*
X152385714Y-76486714D01*
X152257142Y-76958142D02*
X152685714Y-76958142D01*
X152685714Y-76058142D01*
X152257142Y-76058142D01*
X151914285Y-76915285D02*
X151785714Y-76958142D01*
X151571428Y-76958142D01*
X151485714Y-76915285D01*
X151442857Y-76872428D01*
X151400000Y-76786714D01*
X151400000Y-76701000D01*
X151442857Y-76615285D01*
X151485714Y-76572428D01*
X151571428Y-76529571D01*
X151742857Y-76486714D01*
X151828571Y-76443857D01*
X151871428Y-76401000D01*
X151914285Y-76315285D01*
X151914285Y-76229571D01*
X151871428Y-76143857D01*
X151828571Y-76101000D01*
X151742857Y-76058142D01*
X151528571Y-76058142D01*
X151400000Y-76101000D01*
X151014285Y-76958142D02*
X151014285Y-76058142D01*
X150671428Y-76058142D01*
X150585714Y-76101000D01*
X150542857Y-76143857D01*
X150500000Y-76229571D01*
X150500000Y-76358142D01*
X150542857Y-76443857D01*
X150585714Y-76486714D01*
X150671428Y-76529571D01*
X151014285Y-76529571D01*
X149985714Y-76443857D02*
X150071428Y-76401000D01*
X150114285Y-76358142D01*
X150157142Y-76272428D01*
X150157142Y-76229571D01*
X150114285Y-76143857D01*
X150071428Y-76101000D01*
X149985714Y-76058142D01*
X149814285Y-76058142D01*
X149728571Y-76101000D01*
X149685714Y-76143857D01*
X149642857Y-76229571D01*
X149642857Y-76272428D01*
X149685714Y-76358142D01*
X149728571Y-76401000D01*
X149814285Y-76443857D01*
X149985714Y-76443857D01*
X150071428Y-76486714D01*
X150114285Y-76529571D01*
X150157142Y-76615285D01*
X150157142Y-76786714D01*
X150114285Y-76872428D01*
X150071428Y-76915285D01*
X149985714Y-76958142D01*
X149814285Y-76958142D01*
X149728571Y-76915285D01*
X149685714Y-76872428D01*
X149642857Y-76786714D01*
X149642857Y-76615285D01*
X149685714Y-76529571D01*
X149728571Y-76486714D01*
X149814285Y-76443857D01*
X149300000Y-76143857D02*
X149257142Y-76101000D01*
X149171428Y-76058142D01*
X148957142Y-76058142D01*
X148871428Y-76101000D01*
X148828571Y-76143857D01*
X148785714Y-76229571D01*
X148785714Y-76315285D01*
X148828571Y-76443857D01*
X149342857Y-76958142D01*
X148785714Y-76958142D01*
X148014285Y-76058142D02*
X148185714Y-76058142D01*
X148271428Y-76101000D01*
X148314285Y-76143857D01*
X148400000Y-76272428D01*
X148442857Y-76443857D01*
X148442857Y-76786714D01*
X148400000Y-76872428D01*
X148357142Y-76915285D01*
X148271428Y-76958142D01*
X148100000Y-76958142D01*
X148014285Y-76915285D01*
X147971428Y-76872428D01*
X147928571Y-76786714D01*
X147928571Y-76572428D01*
X147971428Y-76486714D01*
X148014285Y-76443857D01*
X148100000Y-76401000D01*
X148271428Y-76401000D01*
X148357142Y-76443857D01*
X148400000Y-76486714D01*
X148442857Y-76572428D01*
X147157142Y-76058142D02*
X147328571Y-76058142D01*
X147414285Y-76101000D01*
X147457142Y-76143857D01*
X147542857Y-76272428D01*
X147585714Y-76443857D01*
X147585714Y-76786714D01*
X147542857Y-76872428D01*
X147500000Y-76915285D01*
X147414285Y-76958142D01*
X147242857Y-76958142D01*
X147157142Y-76915285D01*
X147114285Y-76872428D01*
X147071428Y-76786714D01*
X147071428Y-76572428D01*
X147114285Y-76486714D01*
X147157142Y-76443857D01*
X147242857Y-76401000D01*
X147414285Y-76401000D01*
X147500000Y-76443857D01*
X147542857Y-76486714D01*
X147585714Y-76572428D01*
X154635714Y-77935714D02*
X154507142Y-77978571D01*
X154464285Y-78021428D01*
X154421428Y-78107142D01*
X154421428Y-78235714D01*
X154464285Y-78321428D01*
X154507142Y-78364285D01*
X154592857Y-78407142D01*
X154935714Y-78407142D01*
X154935714Y-77507142D01*
X154635714Y-77507142D01*
X154550000Y-77550000D01*
X154507142Y-77592857D01*
X154464285Y-77678571D01*
X154464285Y-77764285D01*
X154507142Y-77850000D01*
X154550000Y-77892857D01*
X154635714Y-77935714D01*
X154935714Y-77935714D01*
X154035714Y-78407142D02*
X154035714Y-77807142D01*
X154035714Y-77978571D02*
X153992857Y-77892857D01*
X153950000Y-77850000D01*
X153864285Y-77807142D01*
X153778571Y-77807142D01*
X153135714Y-78364285D02*
X153221428Y-78407142D01*
X153392857Y-78407142D01*
X153478571Y-78364285D01*
X153521428Y-78278571D01*
X153521428Y-77935714D01*
X153478571Y-77850000D01*
X153392857Y-77807142D01*
X153221428Y-77807142D01*
X153135714Y-77850000D01*
X153092857Y-77935714D01*
X153092857Y-78021428D01*
X153521428Y-78107142D01*
X152321428Y-78407142D02*
X152321428Y-77935714D01*
X152364285Y-77850000D01*
X152450000Y-77807142D01*
X152621428Y-77807142D01*
X152707142Y-77850000D01*
X152321428Y-78364285D02*
X152407142Y-78407142D01*
X152621428Y-78407142D01*
X152707142Y-78364285D01*
X152750000Y-78278571D01*
X152750000Y-78192857D01*
X152707142Y-78107142D01*
X152621428Y-78064285D01*
X152407142Y-78064285D01*
X152321428Y-78021428D01*
X151892857Y-78407142D02*
X151892857Y-77507142D01*
X151807142Y-78064285D02*
X151550000Y-78407142D01*
X151550000Y-77807142D02*
X151892857Y-78150000D01*
X151035714Y-78407142D02*
X151121428Y-78364285D01*
X151164285Y-78321428D01*
X151207142Y-78235714D01*
X151207142Y-77978571D01*
X151164285Y-77892857D01*
X151121428Y-77850000D01*
X151035714Y-77807142D01*
X150907142Y-77807142D01*
X150821428Y-77850000D01*
X150778571Y-77892857D01*
X150735714Y-77978571D01*
X150735714Y-78235714D01*
X150778571Y-78321428D01*
X150821428Y-78364285D01*
X150907142Y-78407142D01*
X151035714Y-78407142D01*
X149964285Y-77807142D02*
X149964285Y-78407142D01*
X150350000Y-77807142D02*
X150350000Y-78278571D01*
X150307142Y-78364285D01*
X150221428Y-78407142D01*
X150092857Y-78407142D01*
X150007142Y-78364285D01*
X149964285Y-78321428D01*
X149664285Y-77807142D02*
X149321428Y-77807142D01*
X149535714Y-77507142D02*
X149535714Y-78278571D01*
X149492857Y-78364285D01*
X149407142Y-78407142D01*
X149321428Y-78407142D01*
X148035714Y-77935714D02*
X147907142Y-77978571D01*
X147864285Y-78021428D01*
X147821428Y-78107142D01*
X147821428Y-78235714D01*
X147864285Y-78321428D01*
X147907142Y-78364285D01*
X147992857Y-78407142D01*
X148335714Y-78407142D01*
X148335714Y-77507142D01*
X148035714Y-77507142D01*
X147950000Y-77550000D01*
X147907142Y-77592857D01*
X147864285Y-77678571D01*
X147864285Y-77764285D01*
X147907142Y-77850000D01*
X147950000Y-77892857D01*
X148035714Y-77935714D01*
X148335714Y-77935714D01*
X147307142Y-78407142D02*
X147392857Y-78364285D01*
X147435714Y-78321428D01*
X147478571Y-78235714D01*
X147478571Y-77978571D01*
X147435714Y-77892857D01*
X147392857Y-77850000D01*
X147307142Y-77807142D01*
X147178571Y-77807142D01*
X147092857Y-77850000D01*
X147050000Y-77892857D01*
X147007142Y-77978571D01*
X147007142Y-78235714D01*
X147050000Y-78321428D01*
X147092857Y-78364285D01*
X147178571Y-78407142D01*
X147307142Y-78407142D01*
X146235714Y-78407142D02*
X146235714Y-77935714D01*
X146278571Y-77850000D01*
X146364285Y-77807142D01*
X146535714Y-77807142D01*
X146621428Y-77850000D01*
X146235714Y-78364285D02*
X146321428Y-78407142D01*
X146535714Y-78407142D01*
X146621428Y-78364285D01*
X146664285Y-78278571D01*
X146664285Y-78192857D01*
X146621428Y-78107142D01*
X146535714Y-78064285D01*
X146321428Y-78064285D01*
X146235714Y-78021428D01*
X145807142Y-78407142D02*
X145807142Y-77807142D01*
X145807142Y-77978571D02*
X145764285Y-77892857D01*
X145721428Y-77850000D01*
X145635714Y-77807142D01*
X145550000Y-77807142D01*
X144864285Y-78407142D02*
X144864285Y-77507142D01*
X144864285Y-78364285D02*
X144950000Y-78407142D01*
X145121428Y-78407142D01*
X145207142Y-78364285D01*
X145250000Y-78321428D01*
X145292857Y-78235714D01*
X145292857Y-77978571D01*
X145250000Y-77892857D01*
X145207142Y-77850000D01*
X145121428Y-77807142D01*
X144950000Y-77807142D01*
X144864285Y-77850000D01*
X154764285Y-78956142D02*
X155192857Y-78956142D01*
X155235714Y-79384714D01*
X155192857Y-79341857D01*
X155107142Y-79299000D01*
X154892857Y-79299000D01*
X154807142Y-79341857D01*
X154764285Y-79384714D01*
X154721428Y-79470428D01*
X154721428Y-79684714D01*
X154764285Y-79770428D01*
X154807142Y-79813285D01*
X154892857Y-79856142D01*
X155107142Y-79856142D01*
X155192857Y-79813285D01*
X155235714Y-79770428D01*
X154464285Y-78956142D02*
X154164285Y-79856142D01*
X153864285Y-78956142D01*
X152150000Y-79856142D02*
X152192857Y-79856142D01*
X152278571Y-79813285D01*
X152407142Y-79684714D01*
X152621428Y-79427571D01*
X152707142Y-79299000D01*
X152750000Y-79170428D01*
X152750000Y-79084714D01*
X152707142Y-78999000D01*
X152621428Y-78956142D01*
X152578571Y-78956142D01*
X152492857Y-78999000D01*
X152450000Y-79084714D01*
X152450000Y-79127571D01*
X152492857Y-79213285D01*
X152535714Y-79256142D01*
X152792857Y-79427571D01*
X152835714Y-79470428D01*
X152878571Y-79556142D01*
X152878571Y-79684714D01*
X152835714Y-79770428D01*
X152792857Y-79813285D01*
X152707142Y-79856142D01*
X152578571Y-79856142D01*
X152492857Y-79813285D01*
X152450000Y-79770428D01*
X152321428Y-79599000D01*
X152278571Y-79470428D01*
X152278571Y-79384714D01*
X151121428Y-79599000D02*
X150692857Y-79599000D01*
X151207142Y-79856142D02*
X150907142Y-78956142D01*
X150607142Y-79856142D01*
X150307142Y-79856142D02*
X150307142Y-78956142D01*
X150092857Y-78956142D01*
X149964285Y-78999000D01*
X149878571Y-79084714D01*
X149835714Y-79170428D01*
X149792857Y-79341857D01*
X149792857Y-79470428D01*
X149835714Y-79641857D01*
X149878571Y-79727571D01*
X149964285Y-79813285D01*
X150092857Y-79856142D01*
X150307142Y-79856142D01*
X148892857Y-79770428D02*
X148935714Y-79813285D01*
X149064285Y-79856142D01*
X149150000Y-79856142D01*
X149278571Y-79813285D01*
X149364285Y-79727571D01*
X149407142Y-79641857D01*
X149450000Y-79470428D01*
X149450000Y-79341857D01*
X149407142Y-79170428D01*
X149364285Y-79084714D01*
X149278571Y-78999000D01*
X149150000Y-78956142D01*
X149064285Y-78956142D01*
X148935714Y-78999000D01*
X148892857Y-79041857D01*
X147821428Y-79856142D02*
X147821428Y-79256142D01*
X147821428Y-79427571D02*
X147778571Y-79341857D01*
X147735714Y-79299000D01*
X147650000Y-79256142D01*
X147564285Y-79256142D01*
X146921428Y-79813285D02*
X147007142Y-79856142D01*
X147178571Y-79856142D01*
X147264285Y-79813285D01*
X147307142Y-79727571D01*
X147307142Y-79384714D01*
X147264285Y-79299000D01*
X147178571Y-79256142D01*
X147007142Y-79256142D01*
X146921428Y-79299000D01*
X146878571Y-79384714D01*
X146878571Y-79470428D01*
X147307142Y-79556142D01*
X146107142Y-79856142D02*
X146107142Y-79384714D01*
X146150000Y-79299000D01*
X146235714Y-79256142D01*
X146407142Y-79256142D01*
X146492857Y-79299000D01*
X146107142Y-79813285D02*
X146192857Y-79856142D01*
X146407142Y-79856142D01*
X146492857Y-79813285D01*
X146535714Y-79727571D01*
X146535714Y-79641857D01*
X146492857Y-79556142D01*
X146407142Y-79513285D01*
X146192857Y-79513285D01*
X146107142Y-79470428D01*
X145292857Y-79856142D02*
X145292857Y-78956142D01*
X145292857Y-79813285D02*
X145378571Y-79856142D01*
X145550000Y-79856142D01*
X145635714Y-79813285D01*
X145678571Y-79770428D01*
X145721428Y-79684714D01*
X145721428Y-79427571D01*
X145678571Y-79341857D01*
X145635714Y-79299000D01*
X145550000Y-79256142D01*
X145378571Y-79256142D01*
X145292857Y-79299000D01*
X144950000Y-79256142D02*
X144735714Y-79856142D01*
X144521428Y-79256142D02*
X144735714Y-79856142D01*
X144821428Y-80070428D01*
X144864285Y-80113285D01*
X144950000Y-80156142D01*
D11*
X163071428Y-77025000D02*
X162471428Y-77025000D01*
X162471428Y-77425000D02*
X162471428Y-77539285D01*
X162500000Y-77596428D01*
X162557142Y-77653571D01*
X162671428Y-77682142D01*
X162871428Y-77682142D01*
X162985714Y-77653571D01*
X163042857Y-77596428D01*
X163071428Y-77539285D01*
X163071428Y-77425000D01*
X163042857Y-77367857D01*
X162985714Y-77310714D01*
X162871428Y-77282142D01*
X162671428Y-77282142D01*
X162557142Y-77310714D01*
X162500000Y-77367857D01*
X162471428Y-77425000D01*
X162471428Y-78053571D02*
X162471428Y-78110714D01*
X162500000Y-78167857D01*
X162528571Y-78196428D01*
X162585714Y-78225000D01*
X162700000Y-78253571D01*
X162842857Y-78253571D01*
X162957142Y-78225000D01*
X163014285Y-78196428D01*
X163042857Y-78167857D01*
X163071428Y-78110714D01*
X163071428Y-78053571D01*
X163042857Y-77996428D01*
X163014285Y-77967857D01*
X162957142Y-77939285D01*
X162842857Y-77910714D01*
X162700000Y-77910714D01*
X162585714Y-77939285D01*
X162528571Y-77967857D01*
X162500000Y-77996428D01*
X162471428Y-78053571D01*
X163071428Y-74475000D02*
X162471428Y-74475000D01*
X162471428Y-74875000D02*
X162471428Y-74989285D01*
X162500000Y-75046428D01*
X162557142Y-75103571D01*
X162671428Y-75132142D01*
X162871428Y-75132142D01*
X162985714Y-75103571D01*
X163042857Y-75046428D01*
X163071428Y-74989285D01*
X163071428Y-74875000D01*
X163042857Y-74817857D01*
X162985714Y-74760714D01*
X162871428Y-74732142D01*
X162671428Y-74732142D01*
X162557142Y-74760714D01*
X162500000Y-74817857D01*
X162471428Y-74875000D01*
X162671428Y-75646428D02*
X163071428Y-75646428D01*
X162442857Y-75503571D02*
X162871428Y-75360714D01*
X162871428Y-75732142D01*
D12*
X146300000Y-81750000D02*
X146133333Y-82216666D01*
X145966666Y-81750000D01*
X145400000Y-81750000D02*
X145400000Y-82216666D01*
X145566666Y-81483333D02*
X145733333Y-81983333D01*
X145300000Y-81983333D01*
X145033333Y-82216666D02*
X145033333Y-81750000D01*
X145033333Y-81883333D02*
X145000000Y-81816666D01*
X144966666Y-81783333D01*
X144900000Y-81750000D01*
X144833333Y-81750000D01*
X144666666Y-81516666D02*
X144233333Y-81516666D01*
X144466666Y-81783333D01*
X144366666Y-81783333D01*
X144300000Y-81816666D01*
X144266666Y-81850000D01*
X144233333Y-81916666D01*
X144233333Y-82083333D01*
X144266666Y-82150000D01*
X144300000Y-82183333D01*
X144366666Y-82216666D01*
X144566666Y-82216666D01*
X144633333Y-82183333D01*
X144666666Y-82150000D01*
D11*
X163071428Y-66850000D02*
X162471428Y-66850000D01*
X162471428Y-67250000D02*
X162471428Y-67364285D01*
X162500000Y-67421428D01*
X162557142Y-67478571D01*
X162671428Y-67507142D01*
X162871428Y-67507142D01*
X162985714Y-67478571D01*
X163042857Y-67421428D01*
X163071428Y-67364285D01*
X163071428Y-67250000D01*
X163042857Y-67192857D01*
X162985714Y-67135714D01*
X162871428Y-67107142D01*
X162671428Y-67107142D01*
X162557142Y-67135714D01*
X162500000Y-67192857D01*
X162471428Y-67250000D01*
X163071428Y-68078571D02*
X163071428Y-67735714D01*
X163071428Y-67907142D02*
X162471428Y-67907142D01*
X162557142Y-67850000D01*
X162614285Y-67792857D01*
X162642857Y-67735714D01*
X137026581Y-88350000D02*
X137626581Y-88350000D01*
X137626581Y-87950000D02*
X137626581Y-87835714D01*
X137598010Y-87778571D01*
X137540867Y-87721428D01*
X137426581Y-87692857D01*
X137226581Y-87692857D01*
X137112295Y-87721428D01*
X137055152Y-87778571D01*
X137026581Y-87835714D01*
X137026581Y-87950000D01*
X137055152Y-88007142D01*
X137112295Y-88064285D01*
X137226581Y-88092857D01*
X137426581Y-88092857D01*
X137540867Y-88064285D01*
X137598010Y-88007142D01*
X137626581Y-87950000D01*
X137026581Y-87407142D02*
X137026581Y-87292857D01*
X137055152Y-87235714D01*
X137083724Y-87207142D01*
X137169438Y-87150000D01*
X137283724Y-87121428D01*
X137512295Y-87121428D01*
X137569438Y-87150000D01*
X137598010Y-87178571D01*
X137626581Y-87235714D01*
X137626581Y-87350000D01*
X137598010Y-87407142D01*
X137569438Y-87435714D01*
X137512295Y-87464285D01*
X137369438Y-87464285D01*
X137312295Y-87435714D01*
X137283724Y-87407142D01*
X137255152Y-87350000D01*
X137255152Y-87235714D01*
X137283724Y-87178571D01*
X137312295Y-87150000D01*
X137369438Y-87121428D01*
X163071428Y-71950000D02*
X162471428Y-71950000D01*
X162471428Y-72350000D02*
X162471428Y-72464285D01*
X162500000Y-72521428D01*
X162557142Y-72578571D01*
X162671428Y-72607142D01*
X162871428Y-72607142D01*
X162985714Y-72578571D01*
X163042857Y-72521428D01*
X163071428Y-72464285D01*
X163071428Y-72350000D01*
X163042857Y-72292857D01*
X162985714Y-72235714D01*
X162871428Y-72207142D01*
X162671428Y-72207142D01*
X162557142Y-72235714D01*
X162500000Y-72292857D01*
X162471428Y-72350000D01*
X162471428Y-73150000D02*
X162471428Y-72864285D01*
X162757142Y-72835714D01*
X162728571Y-72864285D01*
X162700000Y-72921428D01*
X162700000Y-73064285D01*
X162728571Y-73121428D01*
X162757142Y-73150000D01*
X162814285Y-73178571D01*
X162957142Y-73178571D01*
X163014285Y-73150000D01*
X163042857Y-73121428D01*
X163071428Y-73064285D01*
X163071428Y-72921428D01*
X163042857Y-72864285D01*
X163014285Y-72835714D01*
X162500000Y-84767857D02*
X162471428Y-84710714D01*
X162471428Y-84625000D01*
X162500000Y-84539285D01*
X162557142Y-84482142D01*
X162614285Y-84453571D01*
X162728571Y-84425000D01*
X162814285Y-84425000D01*
X162928571Y-84453571D01*
X162985714Y-84482142D01*
X163042857Y-84539285D01*
X163071428Y-84625000D01*
X163071428Y-84682142D01*
X163042857Y-84767857D01*
X163014285Y-84796428D01*
X162814285Y-84796428D01*
X162814285Y-84682142D01*
X163071428Y-85053571D02*
X162471428Y-85053571D01*
X163071428Y-85396428D01*
X162471428Y-85396428D01*
X163071428Y-85682142D02*
X162471428Y-85682142D01*
X162471428Y-85825000D01*
X162500000Y-85910714D01*
X162557142Y-85967857D01*
X162614285Y-85996428D01*
X162728571Y-86025000D01*
X162814285Y-86025000D01*
X162928571Y-85996428D01*
X162985714Y-85967857D01*
X163042857Y-85910714D01*
X163071428Y-85825000D01*
X163071428Y-85682142D01*
X137028571Y-81035714D02*
X137628571Y-81035714D01*
X137628571Y-80635714D02*
X137628571Y-80521428D01*
X137600000Y-80464285D01*
X137542857Y-80407142D01*
X137428571Y-80378571D01*
X137228571Y-80378571D01*
X137114285Y-80407142D01*
X137057142Y-80464285D01*
X137028571Y-80521428D01*
X137028571Y-80635714D01*
X137057142Y-80692857D01*
X137114285Y-80750000D01*
X137228571Y-80778571D01*
X137428571Y-80778571D01*
X137542857Y-80750000D01*
X137600000Y-80692857D01*
X137628571Y-80635714D01*
X137028571Y-79807142D02*
X137028571Y-80150000D01*
X137028571Y-79978571D02*
X137628571Y-79978571D01*
X137542857Y-80035714D01*
X137485714Y-80092857D01*
X137457142Y-80150000D01*
X137571428Y-79578571D02*
X137600000Y-79550000D01*
X137628571Y-79492857D01*
X137628571Y-79350000D01*
X137600000Y-79292857D01*
X137571428Y-79264285D01*
X137514285Y-79235714D01*
X137457142Y-79235714D01*
X137371428Y-79264285D01*
X137028571Y-79607142D01*
X137028571Y-79235714D01*
X158673809Y-73300000D02*
X159173809Y-73300000D01*
X159173809Y-72966666D02*
X159173809Y-72871428D01*
X159150000Y-72823809D01*
X159102380Y-72776190D01*
X159007142Y-72752380D01*
X158840476Y-72752380D01*
X158745238Y-72776190D01*
X158697619Y-72823809D01*
X158673809Y-72871428D01*
X158673809Y-72966666D01*
X158697619Y-73014285D01*
X158745238Y-73061904D01*
X158840476Y-73085714D01*
X159007142Y-73085714D01*
X159102380Y-73061904D01*
X159150000Y-73014285D01*
X159173809Y-72966666D01*
X159173809Y-72585714D02*
X159173809Y-72276190D01*
X158983333Y-72442857D01*
X158983333Y-72371428D01*
X158959523Y-72323809D01*
X158935714Y-72300000D01*
X158888095Y-72276190D01*
X158769047Y-72276190D01*
X158721428Y-72300000D01*
X158697619Y-72323809D01*
X158673809Y-72371428D01*
X158673809Y-72514285D01*
X158697619Y-72561904D01*
X158721428Y-72585714D01*
X151738095Y-88276190D02*
X151738095Y-87776190D01*
X151404761Y-87776190D02*
X151309523Y-87776190D01*
X151261904Y-87800000D01*
X151214285Y-87847619D01*
X151190476Y-87942857D01*
X151190476Y-88109523D01*
X151214285Y-88204761D01*
X151261904Y-88252380D01*
X151309523Y-88276190D01*
X151404761Y-88276190D01*
X151452380Y-88252380D01*
X151500000Y-88204761D01*
X151523809Y-88109523D01*
X151523809Y-87942857D01*
X151500000Y-87847619D01*
X151452380Y-87800000D01*
X151404761Y-87776190D01*
X150714285Y-88276190D02*
X151000000Y-88276190D01*
X150857142Y-88276190D02*
X150857142Y-87776190D01*
X150904761Y-87847619D01*
X150952380Y-87895238D01*
X151000000Y-87919047D01*
X150404761Y-87776190D02*
X150357142Y-87776190D01*
X150309523Y-87800000D01*
X150285714Y-87823809D01*
X150261904Y-87871428D01*
X150238095Y-87966666D01*
X150238095Y-88085714D01*
X150261904Y-88180952D01*
X150285714Y-88228571D01*
X150309523Y-88252380D01*
X150357142Y-88276190D01*
X150404761Y-88276190D01*
X150452380Y-88252380D01*
X150476190Y-88228571D01*
X150500000Y-88180952D01*
X150523809Y-88085714D01*
X150523809Y-87966666D01*
X150500000Y-87871428D01*
X150476190Y-87823809D01*
X150452380Y-87800000D01*
X150404761Y-87776190D01*
X141264285Y-74430952D02*
X141264285Y-74597619D01*
X141526190Y-74669047D02*
X141526190Y-74430952D01*
X141026190Y-74430952D01*
X141026190Y-74669047D01*
X141526190Y-74883333D02*
X141026190Y-74883333D01*
X141526190Y-75169047D01*
X141026190Y-75169047D01*
X158673809Y-77300000D02*
X159173809Y-77300000D01*
X159173809Y-76966666D02*
X159173809Y-76871428D01*
X159150000Y-76823809D01*
X159102380Y-76776190D01*
X159007142Y-76752380D01*
X158840476Y-76752380D01*
X158745238Y-76776190D01*
X158697619Y-76823809D01*
X158673809Y-76871428D01*
X158673809Y-76966666D01*
X158697619Y-77014285D01*
X158745238Y-77061904D01*
X158840476Y-77085714D01*
X159007142Y-77085714D01*
X159102380Y-77061904D01*
X159150000Y-77014285D01*
X159173809Y-76966666D01*
X159007142Y-76323809D02*
X158673809Y-76323809D01*
X159197619Y-76442857D02*
X158840476Y-76561904D01*
X158840476Y-76252380D01*
X158673809Y-75300000D02*
X159173809Y-75300000D01*
X159173809Y-74966666D02*
X159173809Y-74871428D01*
X159150000Y-74823809D01*
X159102380Y-74776190D01*
X159007142Y-74752380D01*
X158840476Y-74752380D01*
X158745238Y-74776190D01*
X158697619Y-74823809D01*
X158673809Y-74871428D01*
X158673809Y-74966666D01*
X158697619Y-75014285D01*
X158745238Y-75061904D01*
X158840476Y-75085714D01*
X159007142Y-75085714D01*
X159102380Y-75061904D01*
X159150000Y-75014285D01*
X159173809Y-74966666D01*
X159173809Y-74300000D02*
X159173809Y-74538095D01*
X158935714Y-74561904D01*
X158959523Y-74538095D01*
X158983333Y-74490476D01*
X158983333Y-74371428D01*
X158959523Y-74323809D01*
X158935714Y-74300000D01*
X158888095Y-74276190D01*
X158769047Y-74276190D01*
X158721428Y-74300000D01*
X158697619Y-74323809D01*
X158673809Y-74371428D01*
X158673809Y-74490476D01*
X158697619Y-74538095D01*
X158721428Y-74561904D01*
X141526190Y-82061904D02*
X141026190Y-82061904D01*
X141026190Y-82395238D02*
X141026190Y-82490476D01*
X141050000Y-82538095D01*
X141097619Y-82585714D01*
X141192857Y-82609523D01*
X141359523Y-82609523D01*
X141454761Y-82585714D01*
X141502380Y-82538095D01*
X141526190Y-82490476D01*
X141526190Y-82395238D01*
X141502380Y-82347619D01*
X141454761Y-82300000D01*
X141359523Y-82276190D01*
X141192857Y-82276190D01*
X141097619Y-82300000D01*
X141050000Y-82347619D01*
X141026190Y-82395238D01*
X141526190Y-83085714D02*
X141526190Y-82800000D01*
X141526190Y-82942857D02*
X141026190Y-82942857D01*
X141097619Y-82895238D01*
X141145238Y-82847619D01*
X141169047Y-82800000D01*
X141026190Y-83252380D02*
X141026190Y-83561904D01*
X141216666Y-83395238D01*
X141216666Y-83466666D01*
X141240476Y-83514285D01*
X141264285Y-83538095D01*
X141311904Y-83561904D01*
X141430952Y-83561904D01*
X141478571Y-83538095D01*
X141502380Y-83514285D01*
X141526190Y-83466666D01*
X141526190Y-83323809D01*
X141502380Y-83276190D01*
X141478571Y-83252380D01*
X158673809Y-79300000D02*
X159173809Y-79300000D01*
X159173809Y-78966666D02*
X159173809Y-78871428D01*
X159150000Y-78823809D01*
X159102380Y-78776190D01*
X159007142Y-78752380D01*
X158840476Y-78752380D01*
X158745238Y-78776190D01*
X158697619Y-78823809D01*
X158673809Y-78871428D01*
X158673809Y-78966666D01*
X158697619Y-79014285D01*
X158745238Y-79061904D01*
X158840476Y-79085714D01*
X159007142Y-79085714D01*
X159102380Y-79061904D01*
X159150000Y-79014285D01*
X159173809Y-78966666D01*
X159173809Y-78442857D02*
X159173809Y-78395238D01*
X159150000Y-78347619D01*
X159126190Y-78323809D01*
X159078571Y-78300000D01*
X158983333Y-78276190D01*
X158864285Y-78276190D01*
X158769047Y-78300000D01*
X158721428Y-78323809D01*
X158697619Y-78347619D01*
X158673809Y-78395238D01*
X158673809Y-78442857D01*
X158697619Y-78490476D01*
X158721428Y-78514285D01*
X158769047Y-78538095D01*
X158864285Y-78561904D01*
X158983333Y-78561904D01*
X159078571Y-78538095D01*
X159126190Y-78514285D01*
X159150000Y-78490476D01*
X159173809Y-78442857D01*
X141526190Y-76061904D02*
X141026190Y-76061904D01*
X141026190Y-76395238D02*
X141026190Y-76490476D01*
X141050000Y-76538095D01*
X141097619Y-76585714D01*
X141192857Y-76609523D01*
X141359523Y-76609523D01*
X141454761Y-76585714D01*
X141502380Y-76538095D01*
X141526190Y-76490476D01*
X141526190Y-76395238D01*
X141502380Y-76347619D01*
X141454761Y-76300000D01*
X141359523Y-76276190D01*
X141192857Y-76276190D01*
X141097619Y-76300000D01*
X141050000Y-76347619D01*
X141026190Y-76395238D01*
X141526190Y-77085714D02*
X141526190Y-76800000D01*
X141526190Y-76942857D02*
X141026190Y-76942857D01*
X141097619Y-76895238D01*
X141145238Y-76847619D01*
X141169047Y-76800000D01*
X141026190Y-77514285D02*
X141026190Y-77419047D01*
X141050000Y-77371428D01*
X141073809Y-77347619D01*
X141145238Y-77300000D01*
X141240476Y-77276190D01*
X141430952Y-77276190D01*
X141478571Y-77300000D01*
X141502380Y-77323809D01*
X141526190Y-77371428D01*
X141526190Y-77466666D01*
X141502380Y-77514285D01*
X141478571Y-77538095D01*
X141430952Y-77561904D01*
X141311904Y-77561904D01*
X141264285Y-77538095D01*
X141240476Y-77514285D01*
X141216666Y-77466666D01*
X141216666Y-77371428D01*
X141240476Y-77323809D01*
X141264285Y-77300000D01*
X141311904Y-77276190D01*
X158673809Y-83538095D02*
X159173809Y-83538095D01*
X159173809Y-83204761D02*
X159173809Y-83109523D01*
X159150000Y-83061904D01*
X159102380Y-83014285D01*
X159007142Y-82990476D01*
X158840476Y-82990476D01*
X158745238Y-83014285D01*
X158697619Y-83061904D01*
X158673809Y-83109523D01*
X158673809Y-83204761D01*
X158697619Y-83252380D01*
X158745238Y-83300000D01*
X158840476Y-83323809D01*
X159007142Y-83323809D01*
X159102380Y-83300000D01*
X159150000Y-83252380D01*
X159173809Y-83204761D01*
X158673809Y-82514285D02*
X158673809Y-82800000D01*
X158673809Y-82657142D02*
X159173809Y-82657142D01*
X159102380Y-82704761D01*
X159054761Y-82752380D01*
X159030952Y-82800000D01*
X159173809Y-82061904D02*
X159173809Y-82300000D01*
X158935714Y-82323809D01*
X158959523Y-82300000D01*
X158983333Y-82252380D01*
X158983333Y-82133333D01*
X158959523Y-82085714D01*
X158935714Y-82061904D01*
X158888095Y-82038095D01*
X158769047Y-82038095D01*
X158721428Y-82061904D01*
X158697619Y-82085714D01*
X158673809Y-82133333D01*
X158673809Y-82252380D01*
X158697619Y-82300000D01*
X158721428Y-82323809D01*
X158673809Y-71300000D02*
X159173809Y-71300000D01*
X159173809Y-70966666D02*
X159173809Y-70871428D01*
X159150000Y-70823809D01*
X159102380Y-70776190D01*
X159007142Y-70752380D01*
X158840476Y-70752380D01*
X158745238Y-70776190D01*
X158697619Y-70823809D01*
X158673809Y-70871428D01*
X158673809Y-70966666D01*
X158697619Y-71014285D01*
X158745238Y-71061904D01*
X158840476Y-71085714D01*
X159007142Y-71085714D01*
X159102380Y-71061904D01*
X159150000Y-71014285D01*
X159173809Y-70966666D01*
X158673809Y-70276190D02*
X158673809Y-70561904D01*
X158673809Y-70419047D02*
X159173809Y-70419047D01*
X159102380Y-70466666D01*
X159054761Y-70514285D01*
X159030952Y-70561904D01*
X141026190Y-84133333D02*
X141526190Y-84300000D01*
X141026190Y-84466666D01*
X141478571Y-84919047D02*
X141502380Y-84895238D01*
X141526190Y-84823809D01*
X141526190Y-84776190D01*
X141502380Y-84704761D01*
X141454761Y-84657142D01*
X141407142Y-84633333D01*
X141311904Y-84609523D01*
X141240476Y-84609523D01*
X141145238Y-84633333D01*
X141097619Y-84657142D01*
X141050000Y-84704761D01*
X141026190Y-84776190D01*
X141026190Y-84823809D01*
X141050000Y-84895238D01*
X141073809Y-84919047D01*
X141478571Y-85419047D02*
X141502380Y-85395238D01*
X141526190Y-85323809D01*
X141526190Y-85276190D01*
X141502380Y-85204761D01*
X141454761Y-85157142D01*
X141407142Y-85133333D01*
X141311904Y-85109523D01*
X141240476Y-85109523D01*
X141145238Y-85133333D01*
X141097619Y-85157142D01*
X141050000Y-85204761D01*
X141026190Y-85276190D01*
X141026190Y-85323809D01*
X141050000Y-85395238D01*
X141073809Y-85419047D01*
X141526190Y-78061904D02*
X141026190Y-78061904D01*
X141026190Y-78395238D02*
X141026190Y-78490476D01*
X141050000Y-78538095D01*
X141097619Y-78585714D01*
X141192857Y-78609523D01*
X141359523Y-78609523D01*
X141454761Y-78585714D01*
X141502380Y-78538095D01*
X141526190Y-78490476D01*
X141526190Y-78395238D01*
X141502380Y-78347619D01*
X141454761Y-78300000D01*
X141359523Y-78276190D01*
X141192857Y-78276190D01*
X141097619Y-78300000D01*
X141050000Y-78347619D01*
X141026190Y-78395238D01*
X141526190Y-79085714D02*
X141526190Y-78800000D01*
X141526190Y-78942857D02*
X141026190Y-78942857D01*
X141097619Y-78895238D01*
X141145238Y-78847619D01*
X141169047Y-78800000D01*
X141192857Y-79514285D02*
X141526190Y-79514285D01*
X141002380Y-79395238D02*
X141359523Y-79276190D01*
X141359523Y-79585714D01*
X158673809Y-81300000D02*
X159173809Y-81300000D01*
X159173809Y-80966666D02*
X159173809Y-80871428D01*
X159150000Y-80823809D01*
X159102380Y-80776190D01*
X159007142Y-80752380D01*
X158840476Y-80752380D01*
X158745238Y-80776190D01*
X158697619Y-80823809D01*
X158673809Y-80871428D01*
X158673809Y-80966666D01*
X158697619Y-81014285D01*
X158745238Y-81061904D01*
X158840476Y-81085714D01*
X159007142Y-81085714D01*
X159102380Y-81061904D01*
X159150000Y-81014285D01*
X159173809Y-80966666D01*
X159126190Y-80561904D02*
X159150000Y-80538095D01*
X159173809Y-80490476D01*
X159173809Y-80371428D01*
X159150000Y-80323809D01*
X159126190Y-80300000D01*
X159078571Y-80276190D01*
X159030952Y-80276190D01*
X158959523Y-80300000D01*
X158673809Y-80585714D01*
X158673809Y-80276190D01*
X141383333Y-72180952D02*
X141383333Y-72419047D01*
X141526190Y-72133333D02*
X141026190Y-72300000D01*
X141526190Y-72466666D01*
X141526190Y-72633333D02*
X141026190Y-72633333D01*
X141026190Y-72752380D01*
X141050000Y-72823809D01*
X141097619Y-72871428D01*
X141145238Y-72895238D01*
X141240476Y-72919047D01*
X141311904Y-72919047D01*
X141407142Y-72895238D01*
X141454761Y-72871428D01*
X141502380Y-72823809D01*
X141526190Y-72752380D01*
X141526190Y-72633333D01*
X141478571Y-73419047D02*
X141502380Y-73395238D01*
X141526190Y-73323809D01*
X141526190Y-73276190D01*
X141502380Y-73204761D01*
X141454761Y-73157142D01*
X141407142Y-73133333D01*
X141311904Y-73109523D01*
X141240476Y-73109523D01*
X141145238Y-73133333D01*
X141097619Y-73157142D01*
X141050000Y-73204761D01*
X141026190Y-73276190D01*
X141026190Y-73323809D01*
X141050000Y-73395238D01*
X141073809Y-73419047D01*
X149500000Y-88276190D02*
X149500000Y-87776190D01*
X149166666Y-87776190D02*
X149071428Y-87776190D01*
X149023809Y-87800000D01*
X148976190Y-87847619D01*
X148952380Y-87942857D01*
X148952380Y-88109523D01*
X148976190Y-88204761D01*
X149023809Y-88252380D01*
X149071428Y-88276190D01*
X149166666Y-88276190D01*
X149214285Y-88252380D01*
X149261904Y-88204761D01*
X149285714Y-88109523D01*
X149285714Y-87942857D01*
X149261904Y-87847619D01*
X149214285Y-87800000D01*
X149166666Y-87776190D01*
X148714285Y-88276190D02*
X148619047Y-88276190D01*
X148571428Y-88252380D01*
X148547619Y-88228571D01*
X148500000Y-88157142D01*
X148476190Y-88061904D01*
X148476190Y-87871428D01*
X148500000Y-87823809D01*
X148523809Y-87800000D01*
X148571428Y-87776190D01*
X148666666Y-87776190D01*
X148714285Y-87800000D01*
X148738095Y-87823809D01*
X148761904Y-87871428D01*
X148761904Y-87990476D01*
X148738095Y-88038095D01*
X148714285Y-88061904D01*
X148666666Y-88085714D01*
X148571428Y-88085714D01*
X148523809Y-88061904D01*
X148500000Y-88038095D01*
X148476190Y-87990476D01*
X141526190Y-70526190D02*
X141288095Y-70359523D01*
X141526190Y-70240476D02*
X141026190Y-70240476D01*
X141026190Y-70430952D01*
X141050000Y-70478571D01*
X141073809Y-70502380D01*
X141121428Y-70526190D01*
X141192857Y-70526190D01*
X141240476Y-70502380D01*
X141264285Y-70478571D01*
X141288095Y-70430952D01*
X141288095Y-70240476D01*
X141502380Y-70716666D02*
X141526190Y-70788095D01*
X141526190Y-70907142D01*
X141502380Y-70954761D01*
X141478571Y-70978571D01*
X141430952Y-71002380D01*
X141383333Y-71002380D01*
X141335714Y-70978571D01*
X141311904Y-70954761D01*
X141288095Y-70907142D01*
X141264285Y-70811904D01*
X141240476Y-70764285D01*
X141216666Y-70740476D01*
X141169047Y-70716666D01*
X141121428Y-70716666D01*
X141073809Y-70740476D01*
X141050000Y-70764285D01*
X141026190Y-70811904D01*
X141026190Y-70930952D01*
X141050000Y-71002380D01*
X141026190Y-71145238D02*
X141026190Y-71430952D01*
X141526190Y-71288095D02*
X141026190Y-71288095D01*
X141526190Y-80061904D02*
X141026190Y-80061904D01*
X141026190Y-80395238D02*
X141026190Y-80490476D01*
X141050000Y-80538095D01*
X141097619Y-80585714D01*
X141192857Y-80609523D01*
X141359523Y-80609523D01*
X141454761Y-80585714D01*
X141502380Y-80538095D01*
X141526190Y-80490476D01*
X141526190Y-80395238D01*
X141502380Y-80347619D01*
X141454761Y-80300000D01*
X141359523Y-80276190D01*
X141192857Y-80276190D01*
X141097619Y-80300000D01*
X141050000Y-80347619D01*
X141026190Y-80395238D01*
X141526190Y-81085714D02*
X141526190Y-80800000D01*
X141526190Y-80942857D02*
X141026190Y-80942857D01*
X141097619Y-80895238D01*
X141145238Y-80847619D01*
X141169047Y-80800000D01*
X141073809Y-81276190D02*
X141050000Y-81300000D01*
X141026190Y-81347619D01*
X141026190Y-81466666D01*
X141050000Y-81514285D01*
X141073809Y-81538095D01*
X141121428Y-81561904D01*
X141169047Y-81561904D01*
X141240476Y-81538095D01*
X141526190Y-81252380D01*
X141526190Y-81561904D01*
X159150000Y-85180952D02*
X159173809Y-85228571D01*
X159173809Y-85300000D01*
X159150000Y-85371428D01*
X159102380Y-85419047D01*
X159054761Y-85442857D01*
X158959523Y-85466666D01*
X158888095Y-85466666D01*
X158792857Y-85442857D01*
X158745238Y-85419047D01*
X158697619Y-85371428D01*
X158673809Y-85300000D01*
X158673809Y-85252380D01*
X158697619Y-85180952D01*
X158721428Y-85157142D01*
X158888095Y-85157142D01*
X158888095Y-85252380D01*
X158673809Y-84942857D02*
X159173809Y-84942857D01*
X158673809Y-84657142D01*
X159173809Y-84657142D01*
X158673809Y-84419047D02*
X159173809Y-84419047D01*
X159173809Y-84300000D01*
X159150000Y-84228571D01*
X159102380Y-84180952D01*
X159054761Y-84157142D01*
X158959523Y-84133333D01*
X158888095Y-84133333D01*
X158792857Y-84157142D01*
X158745238Y-84180952D01*
X158697619Y-84228571D01*
X158673809Y-84300000D01*
X158673809Y-84419047D01*
%LPC*%
D13*
X155200000Y-93100000D03*
D14*
X157740000Y-93100000D03*
D15*
X143000000Y-70800000D03*
D16*
X143000000Y-72800000D03*
X143000000Y-74800000D03*
X143000000Y-76800000D03*
X143000000Y-78800000D03*
X143000000Y-80800000D03*
X143000000Y-82800000D03*
X143000000Y-84800000D03*
X149000000Y-86300000D03*
X151000000Y-86300000D03*
X157200000Y-84800000D03*
X157200000Y-82800000D03*
X157200000Y-80800000D03*
X157200000Y-78800000D03*
X157200000Y-76800000D03*
X157200000Y-74800000D03*
X157200000Y-72800000D03*
D17*
X157200000Y-70800000D03*
D18*
X138620000Y-67450000D03*
D19*
X138620000Y-69990000D03*
X138620000Y-72530000D03*
X138620000Y-75070000D03*
X138620000Y-77610000D03*
X138620000Y-80150000D03*
X138620000Y-82690000D03*
X138620000Y-85230000D03*
X138620000Y-87770000D03*
D18*
X161480000Y-67450000D03*
D19*
X161480000Y-69990000D03*
X161480000Y-72530000D03*
X161480000Y-75070000D03*
X161480000Y-77610000D03*
X161480000Y-80150000D03*
X161480000Y-82690000D03*
X161480000Y-85230000D03*
X161480000Y-87770000D03*
D20*
X150966726Y-93606726D03*
X151450000Y-92440000D03*
X148633274Y-93606726D03*
X150966726Y-91273274D03*
X148150000Y-92440000D03*
X149800000Y-94090000D03*
X148633274Y-91273274D03*
X149800000Y-90790000D03*
D21*
X149800000Y-92440000D03*
M02*
