M48
; DRILL file {KiCad (6.0.2)} date Thu Sep 29 23:54:30 2022
; FORMAT={-:-/ absolute / metric / decimal}
; #@! TF.CreationDate,2022-09-29T23:54:30+02:00
; #@! TF.GenerationSoftware,Kicad,Pcbnew,(6.0.2)
; #@! TF.FileFunction,Plated,1,2,PTH
FMAT,2
METRIC
; #@! TA.AperFunction,Plated,PTH,ComponentDrill
T1C0.400
; #@! TA.AperFunction,Plated,PTH,ViaDrill
T2C0.600
; #@! TA.AperFunction,Plated,PTH,ComponentDrill
T3C0.800
; #@! TA.AperFunction,Plated,PTH,ComponentDrill
T4C1.000
; #@! TA.AperFunction,Plated,PTH,ComponentDrill
T5C1.100
; #@! TA.AperFunction,Plated,PTH,ComponentDrill
T6C2.200
%
G90
G05
T1
X148.15Y-92.44
X148.633Y-91.273
X148.633Y-93.607
X149.8Y-90.79
X149.8Y-94.09
X150.967Y-91.273
X150.967Y-93.607
X151.45Y-92.44
T2
X147.8Y-80.5
T3
X143.0Y-70.8
X143.0Y-72.8
X143.0Y-74.8
X143.0Y-76.8
X143.0Y-78.8
X143.0Y-80.8
X143.0Y-82.8
X143.0Y-84.8
X149.0Y-86.3
X151.0Y-86.3
X157.2Y-70.8
X157.2Y-72.8
X157.2Y-74.8
X157.2Y-76.8
X157.2Y-78.8
X157.2Y-80.8
X157.2Y-82.8
X157.2Y-84.8
T4
X138.62Y-67.45
X138.62Y-69.99
X138.62Y-72.53
X138.62Y-75.07
X138.62Y-77.61
X138.62Y-80.15
X138.62Y-82.69
X138.62Y-85.23
X138.62Y-87.77
X161.48Y-67.45
X161.48Y-69.99
X161.48Y-72.53
X161.48Y-75.07
X161.48Y-77.61
X161.48Y-80.15
X161.48Y-82.69
X161.48Y-85.23
X161.48Y-87.77
T5
X155.2Y-93.1
X157.74Y-93.1
T6
X149.8Y-92.44
T0
M30
